<?xml version="1.0" encoding="UTF-8" standalone="no"?>
<!DOCTYPE svg PUBLIC "-//W3C//DTD SVG 1.1//EN" "http://www.w3.org/Graphics/SVG/1.1/DTD/svg11.dtd">
<svg xmlns="http://www.w3.org/2000/svg" version="1.1" viewBox="0 0 796 793">
<g stroke-width="2.00" fill="none" stroke-linecap="butt">
<path stroke="#8b8d8f" vector-effect="non-scaling-stroke" d="
  M 680.20 659.18
  C 677.87 655.06 675.85 652.52 677.04 647.00"
/>
<path stroke="#1d1f22" stroke-opacity="0.690" vector-effect="non-scaling-stroke" d="
  M 677.04 647.00
  Q 679.10 647.23 677.50 645.96"
/>
<path stroke="#8b8d8f" vector-effect="non-scaling-stroke" d="
  M 677.50 645.96
  C 678.19 644.69 678.83 643.34 679.76 642.22
  Q 694.52 624.30 707.79 605.25"
/>
<path stroke="#1d1f22" stroke-opacity="0.690" vector-effect="non-scaling-stroke" d="
  M 707.79 605.25
  Q 709.84 605.29 708.79 603.75"
/>
<path stroke="#8b8d8f" vector-effect="non-scaling-stroke" d="
  M 708.79 603.75
  Q 749.74 541.96 765.01 467.99
  Q 766.46 460.95 766.83 457.38
  A 0.45 0.43 2.9 0 0 766.38 456.91
  L 740.75 456.71"
/>
<path stroke="#1d1f22" stroke-opacity="0.690" vector-effect="non-scaling-stroke" d="
  M 740.75 456.71
  Q 740.47 454.71 739.46 456.50"
/>
<path stroke="#8b8d8f" vector-effect="non-scaling-stroke" d="
  M 739.46 456.50
  L 730.00 455.71"
/>
<path stroke="#1d1e22" stroke-opacity="0.796" vector-effect="non-scaling-stroke" d="
  M 730.00 455.71
  Q 729.67 453.68 728.75 455.46"
/>
<path stroke="#8b8d8f" vector-effect="non-scaling-stroke" d="
  M 728.75 455.46
  Q 675.64 448.96 642.70 408.82
  C 631.69 395.40 623.39 378.67 616.19 361.98
  C 614.58 358.24 611.50 354.94 607.76 354.23
  Q 598.72 352.50 589.96 349.75"
/>
<path stroke="#1d1e22" stroke-opacity="0.796" vector-effect="non-scaling-stroke" d="
  M 589.96 349.75
  Q 589.71 347.93 588.71 349.25"
/>
<path stroke="#8b8d8f" vector-effect="non-scaling-stroke" d="
  M 588.71 349.25
  C 506.43 325.61 446.98 255.34 438.50 169.79"
/>
<path stroke="#8b8d8f" vector-effect="non-scaling-stroke" d="
  M 438.29 168.00
  L 437.54 148.50"
/>
<path stroke="#1d1f22" stroke-opacity="0.690" vector-effect="non-scaling-stroke" d="
  M 437.54 148.50
  Q 438.68 146.20 437.50 143.96"
/>
<path stroke="#8b8d8f" vector-effect="non-scaling-stroke" d="
  M 437.50 143.96
  Q 438.25 111.56 448.21 80.75"
/>
<path stroke="#1d1f22" stroke-opacity="0.690" vector-effect="non-scaling-stroke" d="
  M 448.21 80.75
  C 448.36 81.99 449.99 80.29 448.54 79.75"
/>
<path stroke="#8b8d8f" vector-effect="non-scaling-stroke" d="
  M 448.54 79.75
  Q 456.77 55.33 470.00 33.21"
/>
<path stroke="#1e2024" stroke-opacity="0.612" vector-effect="non-scaling-stroke" d="
  M 470.00 33.21
  Q 471.96 33.08 470.75 31.71"
/>
<path stroke="#8b8d8f" vector-effect="non-scaling-stroke" d="
  M 470.75 31.71
  L 471.00 31.21"
/>
<path stroke="#1e2024" stroke-opacity="0.612" vector-effect="non-scaling-stroke" d="
  M 471.00 31.21
  Q 473.40 30.45 471.25 29.79"
/>
<path stroke="#8b8d8f" vector-effect="non-scaling-stroke" d="
  M 471.25 29.79
  Q 458.24 27.06 445.00 25.71"
/>
<path stroke="#1d1f22" stroke-opacity="0.690" vector-effect="non-scaling-stroke" d="
  M 445.00 25.71
  Q 444.46 23.85 443.71 25.50"
/>
<path stroke="#8b8d8f" vector-effect="non-scaling-stroke" d="
  M 443.71 25.50
  L 422.00 23.71"
/>
<path stroke="#1e2024" stroke-opacity="0.612" vector-effect="non-scaling-stroke" d="
  M 422.00 23.71
  Q 421.10 22.18 419.96 23.50"
/>
<path stroke="#8b8d8f" vector-effect="non-scaling-stroke" d="
  M 419.96 23.50
  Q 397.35 22.45 374.75 23.71"
/>
<path stroke="#8b8d8f" vector-effect="non-scaling-stroke" d="
  M 372.00 23.71
  L 352.04 25.50"
/>
<path stroke="#1d1f22" stroke-opacity="0.690" vector-effect="non-scaling-stroke" d="
  M 352.04 25.50
  Q 351.29 23.85 350.75 25.71"
/>
<path stroke="#8b8d8f" vector-effect="non-scaling-stroke" d="
  M 350.75 25.71
  L 344.29 26.50"
/>
<path stroke="#1d1f22" stroke-opacity="0.690" vector-effect="non-scaling-stroke" d="
  M 344.29 26.50
  Q 343.32 24.87 342.75 26.71"
/>
<path stroke="#8b8d8f" vector-effect="non-scaling-stroke" d="
  M 342.75 26.71
  L 312.04 32.50"
/>
<path stroke="#1d1f22" stroke-opacity="0.690" vector-effect="non-scaling-stroke" d="
  M 312.04 32.50
  Q 311.07 30.90 310.75 32.96"
/>
<path stroke="#8b8d8f" vector-effect="non-scaling-stroke" d="
  M 310.75 32.96
  L 308.25 33.46"
/>
<path stroke="#1e2024" stroke-opacity="0.612" vector-effect="non-scaling-stroke" d="
  M 308.25 33.46
  Q 306.99 31.86 306.75 33.96"
/>
<path stroke="#8b8d8f" vector-effect="non-scaling-stroke" d="
  M 306.75 33.96
  L 304.25 34.46"
/>
<path stroke="#1d1f22" stroke-opacity="0.690" vector-effect="non-scaling-stroke" d="
  M 304.25 34.46
  Q 302.97 33.20 302.75 34.96"
/>
<path stroke="#8b8d8f" vector-effect="non-scaling-stroke" d="
  M 302.75 34.96
  C 247.91 49.22 197.39 76.92 154.04 113.25"
/>
<path stroke="#1d1f22" stroke-opacity="0.690" vector-effect="non-scaling-stroke" d="
  M 154.04 113.25
  Q 152.37 112.61 152.75 114.21"
/>
<path stroke="#8b8d8f" vector-effect="non-scaling-stroke" d="
  M 152.75 114.21
  L 150.04 116.25"
/>
<path stroke="#1e2024" stroke-opacity="0.612" vector-effect="non-scaling-stroke" d="
  M 150.04 116.25
  Q 148.88 115.19 148.75 116.96"
/>
<path stroke="#8b8d8f" vector-effect="non-scaling-stroke" d="
  M 148.75 116.96
  Q 141.34 119.61 135.00 114.96"
/>
<path stroke="#cbcaca" stroke-opacity="0.612" vector-effect="non-scaling-stroke" d="
  M 419.96 23.50
  Q 420.89 24.38 422.00 23.71"
/>
<path stroke="#b7b5b6" stroke-opacity="0.690" vector-effect="non-scaling-stroke" d="
  M 443.71 25.50
  L 445.00 25.71"
/>
<path stroke="#cbcaca" stroke-opacity="0.612" vector-effect="non-scaling-stroke" d="
  M 471.25 29.79
  L 471.00 31.21"
/>
<path stroke="#cbcaca" stroke-opacity="0.612" vector-effect="non-scaling-stroke" d="
  M 470.75 31.71
  L 470.00 33.21"
/>
<path stroke="#b7b5b6" stroke-opacity="0.690" vector-effect="non-scaling-stroke" d="
  M 448.54 79.75
  L 448.21 80.75"
/>
<path stroke="#b7b5b6" stroke-opacity="0.690" vector-effect="non-scaling-stroke" d="
  M 437.50 143.96
  Q 436.97 146.22 437.54 148.50"
/>
<path stroke="#a2a1a3" stroke-opacity="0.796" vector-effect="non-scaling-stroke" d="
  M 588.71 349.25
  L 589.96 349.75"
/>
<path stroke="#a2a1a3" stroke-opacity="0.796" vector-effect="non-scaling-stroke" d="
  M 728.75 455.46
  L 730.00 455.71"
/>
<path stroke="#b7b5b6" stroke-opacity="0.690" vector-effect="non-scaling-stroke" d="
  M 739.46 456.50
  L 740.75 456.71"
/>
<path stroke="#b7b5b6" stroke-opacity="0.690" vector-effect="non-scaling-stroke" d="
  M 708.79 603.75
  L 707.79 605.25"
/>
<path stroke="#b7b5b6" stroke-opacity="0.690" vector-effect="non-scaling-stroke" d="
  M 677.50 645.96
  L 677.04 647.00"
/>
<path stroke="#8b8d8f" vector-effect="non-scaling-stroke" d="
  M 661.32 677.13
  C 650.99 672.21 641.67 678.27 634.01 684.76
  Q 624.20 693.07 613.75 700.54"
/>
<path stroke="#eeeeee" vector-effect="non-scaling-stroke" d="
  M 613.75 700.54
  L 612.85 699.79
  A 0.92 0.78 53.2 0 0 612.02 699.60
  Q 590.12 706.95 568.23 714.32
  C 472.53 746.55 371.40 740.42 280.21 697.28
  C 212.05 665.03 151.98 612.08 112.94 546.56
  Q 55.30 449.83 59.89 335.68
  Q 62.23 277.41 79.69 221.80
  Q 83.30 210.28 90.50 190.21
  Q 90.90 189.10 89.96 188.50"
/>
<path stroke="#8b8d8f" vector-effect="non-scaling-stroke" d="
  M 89.96 188.50
  C 98.77 174.95 104.91 163.85 117.44 149.95
  Q 118.16 149.15 119.25 146.29"
/>
<path stroke="#cbcaca" stroke-opacity="0.612" vector-effect="non-scaling-stroke" d="
  M 119.25 146.29
  L 119.71 145.00"
/>
<path stroke="#8b8d8f" vector-effect="non-scaling-stroke" d="
  M 119.71 145.00
  Q 120.83 138.00 115.86 133.12"
/>
<path stroke="#cbcaca" stroke-opacity="0.612" vector-effect="non-scaling-stroke" d="
  M 148.75 116.96
  Q 149.74 117.17 150.04 116.25"
/>
<path stroke="#b7b5b6" stroke-opacity="0.690" vector-effect="non-scaling-stroke" d="
  M 152.75 114.21
  L 154.04 113.25"
/>
<path stroke="#b7b5b6" stroke-opacity="0.690" vector-effect="non-scaling-stroke" d="
  M 302.75 34.96
  L 304.25 34.46"
/>
<path stroke="#cbcaca" stroke-opacity="0.612" vector-effect="non-scaling-stroke" d="
  M 306.75 33.96
  L 308.25 33.46"
/>
<path stroke="#b7b5b6" stroke-opacity="0.690" vector-effect="non-scaling-stroke" d="
  M 310.75 32.96
  L 312.04 32.50"
/>
<path stroke="#b7b5b6" stroke-opacity="0.690" vector-effect="non-scaling-stroke" d="
  M 342.75 26.71
  Q 343.64 27.33 344.29 26.50"
/>
<path stroke="#b7b5b6" stroke-opacity="0.690" vector-effect="non-scaling-stroke" d="
  M 350.75 25.71
  Q 351.47 26.26 352.04 25.50"
/>
<path stroke="#cbcaca" stroke-opacity="0.612" vector-effect="non-scaling-stroke" d="
  M 315.88 143.89
  Q 320.96 150.44 327.49 155.49"
/>
<path stroke="#8b8d8f" vector-effect="non-scaling-stroke" d="
  M 327.49 155.49
  Q 334.00 161.78 342.00 157.04"
/>
<path stroke="#cbcaca" stroke-opacity="0.612" vector-effect="non-scaling-stroke" d="
  M 342.00 157.04
  Q 343.50 156.21 344.54 154.67"
/>
<path stroke="#8b8d8f" vector-effect="non-scaling-stroke" d="
  M 344.54 154.67
  C 349.67 148.04 347.31 142.83 341.82 137.33
  Q 336.48 131.97 331.00 126.76
  C 320.38 116.65 304.37 133.54 315.88 143.89"
/>
<path stroke="#1e2024" stroke-opacity="0.612" vector-effect="non-scaling-stroke" d="
  M 344.54 154.67
  Q 342.14 154.67 342.00 157.04"
/>
<path stroke="#1e2024" stroke-opacity="0.612" vector-effect="non-scaling-stroke" d="
  M 327.49 155.49
  Q 322.46 148.89 315.88 143.89"
/>
<path stroke="#8b8d8f" vector-effect="non-scaling-stroke" d="
  M 362.29 223.00
  C 361.85 228.16 364.67 231.69 369.62 232.69
  C 379.66 234.71 390.83 223.05 394.44 215.14
  C 400.59 201.69 390.57 195.46 378.74 201.20
  Q 366.54 207.12 362.50 220.96"
/>
<path stroke="#cbcaca" stroke-opacity="0.612" vector-effect="non-scaling-stroke" d="
  M 179.00 313.04
  Q 180.44 315.31 182.71 316.75"
/>
<path stroke="#8b8d8f" vector-effect="non-scaling-stroke" d="
  M 182.71 316.75
  Q 198.08 330.56 218.75 332.71"
/>
<path stroke="#b7b5b6" stroke-opacity="0.690" vector-effect="non-scaling-stroke" d="
  M 218.75 332.71
  L 221.00 332.71"
/>
<path stroke="#8b8d8f" vector-effect="non-scaling-stroke" d="
  M 221.00 332.71
  L 227.00 332.71"
/>
<path stroke="#cbcaca" stroke-opacity="0.612" vector-effect="non-scaling-stroke" d="
  M 227.00 332.71
  Q 228.20 333.24 229.29 332.50"
/>
<path stroke="#8b8d8f" vector-effect="non-scaling-stroke" d="
  M 229.29 332.50
  Q 238.85 331.57 247.75 327.96"
/>
<path stroke="#b7b5b6" stroke-opacity="0.690" vector-effect="non-scaling-stroke" d="
  M 247.75 327.96
  L 249.04 327.25"
/>
<path stroke="#8b8d8f" vector-effect="non-scaling-stroke" d="
  M 249.04 327.25
  Q 267.29 318.83 277.04 301.25"
/>
<path stroke="#b7b5b6" stroke-opacity="0.690" vector-effect="non-scaling-stroke" d="
  M 277.04 301.25
  L 277.96 299.75"
/>
<path stroke="#8b8d8f" vector-effect="non-scaling-stroke" d="
  M 277.96 299.75
  L 278.21 299.25"
/>
<path stroke="#b7b5b6" stroke-opacity="0.690" vector-effect="non-scaling-stroke" d="
  M 278.21 299.25
  L 278.96 297.75"
/>
<path stroke="#8b8d8f" vector-effect="non-scaling-stroke" d="
  M 278.96 297.75
  Q 283.32 288.06 284.71 277.50"
/>
<path stroke="#cbcaca" stroke-opacity="0.612" vector-effect="non-scaling-stroke" d="
  M 284.71 277.50
  Q 285.29 275.99 284.71 274.50"
/>
<path stroke="#8b8d8f" vector-effect="non-scaling-stroke" d="
  M 284.71 274.50
  L 284.75 269.04"
/>
<path stroke="#8b8d8f" vector-effect="non-scaling-stroke" d="
  M 284.50 265.96
  Q 284.14 260.88 282.71 256.00"
/>
<path stroke="#a2a1a3" stroke-opacity="0.796" vector-effect="non-scaling-stroke" d="
  M 282.71 256.00
  L 282.25 254.71"
/>
<path stroke="#8b8d8f" vector-effect="non-scaling-stroke" d="
  M 282.25 254.71
  L 281.71 253.00"
/>
<path stroke="#b7b5b6" stroke-opacity="0.690" vector-effect="non-scaling-stroke" d="
  M 281.71 253.00
  L 281.21 251.50"
/>
<path stroke="#8b8d8f" vector-effect="non-scaling-stroke" d="
  M 281.21 251.50
  Q 277.11 239.63 268.46 230.59"
/>
<path stroke="#b7b5b6" stroke-opacity="0.690" vector-effect="non-scaling-stroke" d="
  M 268.46 230.59
  Q 267.20 228.53 265.27 227.16"
/>
<path stroke="#8b8d8f" vector-effect="non-scaling-stroke" d="
  M 265.27 227.16
  C 224.21 190.81 160.72 219.84 163.00 275.00
  Q 163.88 296.37 179.00 313.04"
/>
<path stroke="#1d1f22" stroke-opacity="0.690" vector-effect="non-scaling-stroke" d="
  M 265.27 227.16
  Q 265.95 229.78 268.46 230.59"
/>
<path stroke="#1d1f22" stroke-opacity="0.690" vector-effect="non-scaling-stroke" d="
  M 281.21 251.50
  Q 279.95 252.78 281.71 253.00"
/>
<path stroke="#1d1e22" stroke-opacity="0.796" vector-effect="non-scaling-stroke" d="
  M 282.25 254.71
  Q 280.98 255.89 282.71 256.00"
/>
<path stroke="#1e2024" stroke-opacity="0.612" vector-effect="non-scaling-stroke" d="
  M 284.71 274.50
  Q 282.89 276.00 284.71 277.50"
/>
<path stroke="#1d1f22" stroke-opacity="0.690" vector-effect="non-scaling-stroke" d="
  M 278.96 297.75
  Q 277.05 297.98 278.21 299.25"
/>
<path stroke="#1d1f22" stroke-opacity="0.690" vector-effect="non-scaling-stroke" d="
  M 277.96 299.75
  Q 276.24 299.74 277.04 301.25"
/>
<path stroke="#1d1f22" stroke-opacity="0.690" vector-effect="non-scaling-stroke" d="
  M 249.04 327.25
  Q 247.79 326.13 247.75 327.96"
/>
<path stroke="#1e2024" stroke-opacity="0.612" vector-effect="non-scaling-stroke" d="
  M 229.29 332.50
  Q 227.96 331.03 227.00 332.71"
/>
<path stroke="#1d1f22" stroke-opacity="0.690" vector-effect="non-scaling-stroke" d="
  M 221.00 332.71
  Q 219.81 330.63 218.75 332.71"
/>
<path stroke="#1e2024" stroke-opacity="0.612" vector-effect="non-scaling-stroke" d="
  M 182.71 316.75
  Q 181.68 314.07 179.00 313.04"
/>
<path stroke="#8b8d8f" vector-effect="non-scaling-stroke" d="
  M 349.31 335.78
  Q 351.77 359.72 374.04 368.25
  Q 376.31 369.12 378.71 369.25"
/>
<path stroke="#a2a1a3" stroke-opacity="0.796" vector-effect="non-scaling-stroke" d="
  M 378.71 369.25
  L 380.00 369.71"
/>
<path stroke="#8b8d8f" vector-effect="non-scaling-stroke" d="
  M 380.00 369.71
  Q 401.05 372.06 414.25 356.04"
/>
<path stroke="#b7b5b6" stroke-opacity="0.690" vector-effect="non-scaling-stroke" d="
  M 414.25 356.04
  L 415.00 355.04"
/>
<path stroke="#8b8d8f" vector-effect="non-scaling-stroke" d="
  M 415.00 355.04
  Q 420.27 347.31 421.46 338.00"
/>
<path stroke="#b7b5b6" stroke-opacity="0.690" vector-effect="non-scaling-stroke" d="
  M 421.46 338.00
  L 421.71 335.00"
/>
<path stroke="#8b8d8f" vector-effect="non-scaling-stroke" d="
  M 421.71 335.00
  L 421.71 333.25"
/>
<path stroke="#cbcaca" stroke-opacity="0.612" vector-effect="non-scaling-stroke" d="
  M 421.71 333.25
  Q 422.46 331.53 421.50 329.96"
/>
<path stroke="#8b8d8f" vector-effect="non-scaling-stroke" d="
  M 421.50 329.96
  Q 418.01 309.40 401.12 301.52
  C 377.57 290.54 351.24 306.22 349.50 331.96"
/>
<path stroke="#1e2024" stroke-opacity="0.612" vector-effect="non-scaling-stroke" d="
  M 421.50 329.96
  Q 419.77 331.73 421.71 333.25"
/>
<path stroke="#1d1f22" stroke-opacity="0.690" vector-effect="non-scaling-stroke" d="
  M 421.71 335.00
  Q 419.54 336.35 421.46 338.00"
/>
<path stroke="#1d1f22" stroke-opacity="0.690" vector-effect="non-scaling-stroke" d="
  M 415.00 355.04
  Q 412.92 354.54 414.25 356.04"
/>
<path stroke="#1d1e22" stroke-opacity="0.796" vector-effect="non-scaling-stroke" d="
  M 380.00 369.71
  Q 379.84 367.85 378.71 369.25"
/>
<path stroke="#cbcaca" stroke-opacity="0.612" vector-effect="non-scaling-stroke" d="
  M 159.00 414.29
  L 159.96 413.00"
/>
<path stroke="#8b8d8f" vector-effect="non-scaling-stroke" d="
  M 159.96 413.00
  Q 161.24 409.72 160.71 406.25"
/>
<path stroke="#b7b5b6" stroke-opacity="0.690" vector-effect="non-scaling-stroke" d="
  M 160.71 406.25
  Q 161.26 405.53 160.50 404.96"
/>
<path stroke="#8b8d8f" vector-effect="non-scaling-stroke" d="
  M 160.50 404.96
  Q 154.66 393.26 148.50 381.74
  Q 145.53 376.18 142.83 374.24
  C 136.19 369.48 125.32 374.97 125.02 383.49
  Q 124.92 386.09 126.73 389.67
  Q 134.03 404.19 137.58 410.93
  C 139.11 413.86 141.15 417.38 144.39 418.74
  Q 153.00 422.32 159.00 414.29"
/>
<path stroke="#1d1f22" stroke-opacity="0.690" vector-effect="non-scaling-stroke" d="
  M 160.50 404.96
  Q 158.88 405.64 160.71 406.25"
/>
<path stroke="#1e2024" stroke-opacity="0.612" vector-effect="non-scaling-stroke" d="
  M 159.96 413.00
  Q 158.27 412.64 159.00 414.29"
/>
<path stroke="#8b8d8f" vector-effect="non-scaling-stroke" d="
  M 508.00 409.54
  Q 500.27 412.83 482.19 421.94
  Q 477.74 424.18 475.75 426.96"
/>
<path stroke="#b7b5b6" stroke-opacity="0.690" vector-effect="non-scaling-stroke" d="
  M 475.75 426.96
  Q 474.58 428.17 473.92 429.89"
/>
<path stroke="#8b8d8f" vector-effect="non-scaling-stroke" d="
  M 473.92 429.89
  Q 472.98 444.79 486.00 444.71
  C 491.09 444.69 499.13 439.43 503.75 437.04"
/>
<path stroke="#b7b5b6" stroke-opacity="0.690" vector-effect="non-scaling-stroke" d="
  M 503.75 437.04
  Q 509.61 434.58 515.02 431.20"
/>
<path stroke="#8b8d8f" vector-effect="non-scaling-stroke" d="
  M 515.02 431.20
  C 525.25 425.98 522.28 412.10 511.75 409.54"
/>
<path stroke="#1d1f22" stroke-opacity="0.690" vector-effect="non-scaling-stroke" d="
  M 515.02 431.20
  Q 510.54 432.65 507.61 434.58
  Q 507.19 434.85 506.75 434.86
  A 0.98 0.54 5.9 0 0 505.93 435.21
  Q 505.53 436.11 504.49 435.97
  A 0.87 0.68 -66.7 0 0 503.75 436.37
  Q 503.54 436.71 503.75 437.04"
/>
<path stroke="#1d1f22" stroke-opacity="0.690" vector-effect="non-scaling-stroke" d="
  M 473.92 429.89
  Q 475.32 429.85 475.19 428.80
  A 0.73 0.69 -20.8 0 1 475.52 428.11
  Q 476.15 427.72 475.75 426.96"
/>
<path stroke="#b7b5b6" stroke-opacity="0.690" vector-effect="non-scaling-stroke" d="
  M 309.71 444.50
  L 311.50 444.71"
/>
<path stroke="#8b8d8f" vector-effect="non-scaling-stroke" d="
  M 311.50 444.71
  Q 318.24 443.39 321.25 437.29"
/>
<path stroke="#b7b5b6" stroke-opacity="0.690" vector-effect="non-scaling-stroke" d="
  M 321.25 437.29
  L 321.71 436.00"
/>
<path stroke="#8b8d8f" vector-effect="non-scaling-stroke" d="
  M 321.71 436.00
  C 322.75 431.71 321.99 428.71 318.80 425.43
  Q 312.49 418.91 305.85 412.70
  C 303.42 410.43 299.39 408.77 296.52 409.71
  Q 285.57 413.29 287.44 423.98
  Q 287.81 426.10 289.52 427.97
  C 294.88 433.81 303.55 443.87 309.71 444.50"
/>
<path stroke="#1d1f22" stroke-opacity="0.690" vector-effect="non-scaling-stroke" d="
  M 321.71 436.00
  Q 319.90 436.12 321.25 437.29"
/>
<path stroke="#1d1f22" stroke-opacity="0.690" vector-effect="non-scaling-stroke" d="
  M 311.50 444.71
  Q 310.86 443.22 309.71 444.50"
/>
<path stroke="#b7b5b6" stroke-opacity="0.690" vector-effect="non-scaling-stroke" d="
  M 241.50 568.46
  L 242.75 568.71"
/>
<path stroke="#8b8d8f" vector-effect="non-scaling-stroke" d="
  M 242.75 568.71
  Q 251.34 569.61 259.75 567.71"
/>
<path stroke="#a2a1a3" stroke-opacity="0.796" vector-effect="non-scaling-stroke" d="
  M 259.75 567.71
  L 261.00 567.46"
/>
<path stroke="#8b8d8f" vector-effect="non-scaling-stroke" d="
  M 261.00 567.46
  L 265.75 565.96"
/>
<path stroke="#b7b5b6" stroke-opacity="0.690" vector-effect="non-scaling-stroke" d="
  M 265.75 565.96
  L 267.00 565.46"
/>
<path stroke="#8b8d8f" vector-effect="non-scaling-stroke" d="
  M 267.00 565.46
  L 273.79 562.00"
/>
<path stroke="#b7b5b6" stroke-opacity="0.690" vector-effect="non-scaling-stroke" d="
  M 273.79 562.00
  L 275.04 561.25"
/>
<path stroke="#8b8d8f" vector-effect="non-scaling-stroke" d="
  M 275.04 561.25
  Q 283.43 555.67 289.00 547.29"
/>
<path stroke="#b7b5b6" stroke-opacity="0.690" vector-effect="non-scaling-stroke" d="
  M 289.00 547.29
  L 290.00 545.79"
/>
<path stroke="#8b8d8f" vector-effect="non-scaling-stroke" d="
  M 290.00 545.79
  C 305.65 519.94 294.53 486.28 266.27 475.27
  C 240.31 465.16 210.97 478.99 202.42 505.50
  C 193.29 533.78 211.62 564.22 241.50 568.46"
/>
<path stroke="#1d1f22" stroke-opacity="0.690" vector-effect="non-scaling-stroke" d="
  M 290.00 545.79
  Q 288.29 545.77 289.00 547.29"
/>
<path stroke="#1d1f22" stroke-opacity="0.690" vector-effect="non-scaling-stroke" d="
  M 275.04 561.25
  Q 273.64 559.95 273.79 562.00"
/>
<path stroke="#1d1f22" stroke-opacity="0.690" vector-effect="non-scaling-stroke" d="
  M 267.00 565.46
  Q 265.91 563.80 265.75 565.96"
/>
<path stroke="#1d1e22" stroke-opacity="0.796" vector-effect="non-scaling-stroke" d="
  M 261.00 567.46
  Q 260.17 565.74 259.75 567.71"
/>
<path stroke="#1d1f22" stroke-opacity="0.690" vector-effect="non-scaling-stroke" d="
  M 242.75 568.71
  Q 242.48 566.73 241.50 568.46"
/>
<path stroke="#8b8d8f" vector-effect="non-scaling-stroke" d="
  M 600.21 476.75
  C 596.88 481.38 597.56 485.19 600.15 490.34
  Q 604.68 499.33 609.19 508.33
  Q 612.48 514.93 614.53 516.72
  C 620.93 522.33 631.22 518.28 633.46 510.00"
/>
<path stroke="#cbcaca" stroke-opacity="0.612" vector-effect="non-scaling-stroke" d="
  M 633.46 510.00
  Q 634.13 509.09 633.71 508.00"
/>
<path stroke="#8b8d8f" vector-effect="non-scaling-stroke" d="
  M 633.71 508.00
  L 633.71 507.25"
/>
<path stroke="#cbcaca" stroke-opacity="0.612" vector-effect="non-scaling-stroke" d="
  M 633.71 507.25
  Q 634.26 506.53 633.50 505.96"
/>
<path stroke="#8b8d8f" vector-effect="non-scaling-stroke" d="
  M 633.50 505.96
  Q 632.99 503.78 631.56 500.94
  Q 626.84 491.55 622.00 482.21"
/>
<path stroke="#b7b5b6" stroke-opacity="0.690" vector-effect="non-scaling-stroke" d="
  M 622.00 482.21
  L 621.50 480.96"
/>
<path stroke="#8b8d8f" vector-effect="non-scaling-stroke" d="
  M 621.50 480.96
  C 617.74 472.63 609.91 468.65 601.96 475.00"
/>
<path stroke="#1d1f22" stroke-opacity="0.690" vector-effect="non-scaling-stroke" d="
  M 621.50 480.96
  Q 620.21 482.20 622.00 482.21"
/>
<path stroke="#1e2024" stroke-opacity="0.612" vector-effect="non-scaling-stroke" d="
  M 633.50 505.96
  Q 631.94 506.70 633.71 507.25"
/>
<path stroke="#1e2024" stroke-opacity="0.612" vector-effect="non-scaling-stroke" d="
  M 633.71 508.00
  Q 631.88 508.94 633.46 510.00"
/>
<path stroke="#cbcaca" stroke-opacity="0.612" vector-effect="non-scaling-stroke" d="
  M 444.75 512.21
  L 442.96 513.75"
/>
<path stroke="#8b8d8f" vector-effect="non-scaling-stroke" d="
  M 442.96 513.75
  L 440.96 516.00"
/>
<path stroke="#b7b5b6" stroke-opacity="0.690" vector-effect="non-scaling-stroke" d="
  M 440.96 516.00
  L 439.21 517.75"
/>
<path stroke="#8b8d8f" vector-effect="non-scaling-stroke" d="
  M 439.21 517.75
  Q 426.50 532.67 424.29 552.25"
/>
<path stroke="#8b8d8f" vector-effect="non-scaling-stroke" d="
  M 424.29 555.00
  L 424.29 560.50"
/>
<path stroke="#8b8d8f" vector-effect="non-scaling-stroke" d="
  M 424.46 563.80
  C 428.43 594.21 450.43 615.61 480.75 618.71"
/>
<path stroke="#cbcaca" stroke-opacity="0.612" vector-effect="non-scaling-stroke" d="
  M 480.75 618.71
  Q 481.79 619.21 482.75 618.71"
/>
<path stroke="#8b8d8f" vector-effect="non-scaling-stroke" d="
  M 482.75 618.71
  L 487.00 618.71"
/>
<path stroke="#cbcaca" stroke-opacity="0.612" vector-effect="non-scaling-stroke" d="
  M 487.00 618.71
  Q 488.25 619.30 489.50 618.71"
/>
<path stroke="#8b8d8f" vector-effect="non-scaling-stroke" d="
  M 489.50 618.71
  L 496.50 617.71"
/>
<path stroke="#b7b5b6" stroke-opacity="0.690" vector-effect="non-scaling-stroke" d="
  M 496.50 617.71
  L 498.00 617.46"
/>
<path stroke="#8b8d8f" vector-effect="non-scaling-stroke" d="
  M 498.00 617.46
  L 503.75 615.96"
/>
<path stroke="#b7b5b6" stroke-opacity="0.690" vector-effect="non-scaling-stroke" d="
  M 503.75 615.96
  L 505.25 615.29"
/>
<path stroke="#8b8d8f" vector-effect="non-scaling-stroke" d="
  M 505.25 615.29
  Q 517.02 611.18 526.25 602.79"
/>
<path stroke="#b7b5b6" stroke-opacity="0.690" vector-effect="non-scaling-stroke" d="
  M 526.25 602.79
  L 530.00 599.04"
/>
<path stroke="#8b8d8f" vector-effect="non-scaling-stroke" d="
  M 530.00 599.04
  Q 542.65 585.29 545.46 566.75"
/>
<path stroke="#cbcaca" stroke-opacity="0.612" vector-effect="non-scaling-stroke" d="
  M 545.46 566.75
  L 545.71 565.50"
/>
<path stroke="#8b8d8f" vector-effect="non-scaling-stroke" d="
  M 545.71 565.50
  Q 546.51 557.88 545.50 550.29"
/>
<path stroke="#b7b5b6" stroke-opacity="0.690" vector-effect="non-scaling-stroke" d="
  M 545.50 550.29
  L 545.50 548.96"
/>
<path stroke="#8b8d8f" vector-effect="non-scaling-stroke" d="
  M 545.50 548.96
  C 538.40 500.73 480.93 480.48 444.75 512.21"
/>
<path stroke="#1d1f22" stroke-opacity="0.690" vector-effect="non-scaling-stroke" d="
  M 545.50 548.96
  Q 543.85 549.58 545.50 550.29"
/>
<path stroke="#1e2024" stroke-opacity="0.612" vector-effect="non-scaling-stroke" d="
  M 545.71 565.50
  C 544.97 563.99 543.92 566.78 545.46 566.75"
/>
<path stroke="#1d1f22" stroke-opacity="0.690" vector-effect="non-scaling-stroke" d="
  M 530.00 599.04
  Q 527.05 599.90 526.25 602.79"
/>
<path stroke="#1d1f22" stroke-opacity="0.690" vector-effect="non-scaling-stroke" d="
  M 505.25 615.29
  Q 503.92 614.22 503.75 615.96"
/>
<path stroke="#1d1f22" stroke-opacity="0.690" vector-effect="non-scaling-stroke" d="
  M 498.00 617.46
  Q 496.94 615.77 496.50 617.71"
/>
<path stroke="#1e2024" stroke-opacity="0.612" vector-effect="non-scaling-stroke" d="
  M 489.50 618.71
  Q 488.14 616.88 487.00 618.71"
/>
<path stroke="#1e2024" stroke-opacity="0.612" vector-effect="non-scaling-stroke" d="
  M 482.75 618.71
  Q 481.94 616.68 480.75 618.71"
/>
<path stroke="#1d1f22" stroke-opacity="0.690" vector-effect="non-scaling-stroke" d="
  M 439.21 517.75
  Q 440.93 517.81 440.96 516.00"
/>
<path stroke="#1e2024" stroke-opacity="0.612" vector-effect="non-scaling-stroke" d="
  M 442.96 513.75
  Q 444.77 514.03 444.75 512.21"
/>
<path stroke="#b7b5b6" stroke-opacity="0.690" vector-effect="non-scaling-stroke" d="
  M 345.96 615.00
  L 345.25 613.96"
/>
<path stroke="#8b8d8f" vector-effect="non-scaling-stroke" d="
  M 345.25 613.96
  Q 339.58 605.79 330.33 609.86
  Q 326.86 611.38 309.32 620.38
  Q 304.28 622.96 302.62 624.73
  C 295.71 632.07 301.26 643.40 310.87 643.85
  Q 313.28 643.97 316.30 642.44
  Q 328.54 636.23 340.77 630.06
  Q 349.94 625.43 345.96 615.00"
/>
<path stroke="#1d1f22" stroke-opacity="0.690" vector-effect="non-scaling-stroke" d="
  M 345.25 613.96
  Q 344.26 615.41 345.96 615.00"
/>
<path stroke="#8b8d8f" vector-effect="non-scaling-stroke" d="
  M 435.50 689.04
  C 435.67 695.46 438.50 702.67 444.71 705.25"
/>
<path stroke="#a2a1a3" stroke-opacity="0.796" vector-effect="non-scaling-stroke" d="
  M 444.71 705.25
  L 446.00 705.71"
/>
<path stroke="#8b8d8f" vector-effect="non-scaling-stroke" d="
  M 446.00 705.71
  C 457.67 707.78 461.48 691.78 459.71 683.25"
/>
<path stroke="#b7b5b6" stroke-opacity="0.690" vector-effect="non-scaling-stroke" d="
  M 459.71 683.25
  Q 460.26 682.53 459.50 681.96"
/>
<path stroke="#8b8d8f" vector-effect="non-scaling-stroke" d="
  M 459.50 681.96
  C 458.03 675.60 452.22 668.49 445.28 670.88
  C 439.04 673.03 435.64 680.66 435.54 687.00"
/>
<path stroke="#1d1f22" stroke-opacity="0.690" vector-effect="non-scaling-stroke" d="
  M 459.50 681.96
  Q 457.88 682.64 459.71 683.25"
/>
<path stroke="#1d1e22" stroke-opacity="0.796" vector-effect="non-scaling-stroke" d="
  M 446.00 705.71
  Q 445.84 703.85 444.71 705.25"
/>
<path stroke="#1e2024" stroke-opacity="0.612" vector-effect="non-scaling-stroke" d="
  M 605.04 87.50
  Q 603.86 86.23 603.75 87.96"
/>
<path stroke="#8b8d8f" vector-effect="non-scaling-stroke" d="
  M 603.75 87.96
  L 587.04 94.50"
/>
<path stroke="#1d1e22" stroke-opacity="0.796" vector-effect="non-scaling-stroke" d="
  M 587.04 94.50
  Q 585.80 93.21 585.79 95.00"
/>
<path stroke="#848688" vector-effect="non-scaling-stroke" d="
  M 585.79 95.00
  C 569.42 103.15 565.16 125.08 566.25 141.43
  C 566.96 152.20 575.36 159.53 584.43 163.56
  Q 598.56 169.84 614.49 174.29
  C 625.43 177.34 634.73 175.62 642.96 167.75"
/>
<path stroke="#1e2024" stroke-opacity="0.612" vector-effect="non-scaling-stroke" d="
  M 642.96 167.75
  C 643.42 169.08 645.14 167.20 643.50 166.96"
/>
<path stroke="#848688" vector-effect="non-scaling-stroke" d="
  M 643.50 166.96
  L 643.75 166.54"
/>
<path stroke="#8b8d8f" vector-effect="non-scaling-stroke" d="
  M 643.75 166.54
  Q 652.73 143.23 658.25 121.50
  Q 660.68 111.93 659.54 101.25"
/>
<path stroke="#1e2024" stroke-opacity="0.612" vector-effect="non-scaling-stroke" d="
  M 659.54 101.25
  Q 660.77 99.68 659.04 100.00"
/>
<path stroke="#8b8d8f" vector-effect="non-scaling-stroke" d="
  M 659.04 100.00
  C 654.63 73.21 621.41 81.54 605.04 87.50"
/>
<path stroke="#cbcaca" stroke-opacity="0.612" vector-effect="non-scaling-stroke" d="
  M 659.04 100.00
  L 659.54 101.25"
/>
<path stroke="#eeeeee" vector-effect="non-scaling-stroke" d="
  M 643.75 166.54
  Q 641.93 167.87 640.40 166.47
  Q 640.00 166.09 639.58 165.97
  C 628.38 162.53 612.93 157.63 604.05 149.82
  Q 580.95 129.50 586.14 97.21
  Q 586.38 95.73 586.25 95.04"
/>
<path stroke="#a2a1a3" stroke-opacity="0.796" vector-effect="non-scaling-stroke" d="
  M 586.25 95.04
  L 587.04 94.50"
/>
<path stroke="#cbcaca" stroke-opacity="0.612" vector-effect="non-scaling-stroke" d="
  M 603.75 87.96
  L 605.04 87.50"
/>
<path stroke="#bfbebe" stroke-opacity="0.612" vector-effect="non-scaling-stroke" d="
  M 643.50 166.96
  L 642.96 167.75"
/>
<path stroke="#999799" stroke-opacity="0.796" vector-effect="non-scaling-stroke" d="
  M 586.25 95.04
  L 585.79 95.00"
/>
<path stroke="#1e2024" stroke-opacity="0.612" vector-effect="non-scaling-stroke" d="
  M 119.71 145.00
  Q 117.92 145.26 119.25 146.29"
/>
<path stroke="#848688" vector-effect="non-scaling-stroke" d="
  M 89.96 188.50
  Q 73.05 211.96 59.96 237.75"
/>
<path stroke="#1d1e22" stroke-opacity="0.796" vector-effect="non-scaling-stroke" d="
  M 59.96 237.75
  Q 58.22 238.13 59.25 239.29"
/>
<path stroke="#848688" vector-effect="non-scaling-stroke" d="
  M 59.25 239.29
  Q 33.08 292.87 26.71 352.25"
/>
<path stroke="#1d1f22" stroke-opacity="0.690" vector-effect="non-scaling-stroke" d="
  M 26.71 352.25
  Q 24.97 352.77 26.46 353.75"
/>
<path stroke="#848688" vector-effect="non-scaling-stroke" d="
  M 26.46 353.75
  L 25.71 361.75"
/>
<path stroke="#1e2024" stroke-opacity="0.612" vector-effect="non-scaling-stroke" d="
  M 25.71 361.75
  Q 23.78 362.53 25.46 363.75"
/>
<path stroke="#848688" vector-effect="non-scaling-stroke" d="
  M 25.46 363.75
  L 24.71 376.25"
/>
<path stroke="#1e2024" stroke-opacity="0.612" vector-effect="non-scaling-stroke" d="
  M 24.71 376.25
  Q 22.89 377.75 24.71 379.25"
/>
<path stroke="#848688" vector-effect="non-scaling-stroke" d="
  M 24.71 379.25
  Q 23.69 396.79 24.66 414.20"
/>
<path stroke="#1e2024" stroke-opacity="0.612" vector-effect="non-scaling-stroke" d="
  M 24.66 414.20
  Q 22.91 415.60 24.75 417.04"
/>
<path stroke="#848688" vector-effect="non-scaling-stroke" d="
  M 24.75 417.04
  L 25.71 429.50"
/>
<path stroke="#848688" vector-effect="non-scaling-stroke" d="
  M 25.71 431.00
  L 27.50 447.71"
/>
<path stroke="#1d1f22" stroke-opacity="0.690" vector-effect="non-scaling-stroke" d="
  M 27.50 447.71
  Q 25.76 448.63 27.75 449.04"
/>
<path stroke="#848688" vector-effect="non-scaling-stroke" d="
  M 27.75 449.04
  Q 43.97 561.00 119.04 645.00"
/>
<path stroke="#1d1e22" stroke-opacity="0.796" vector-effect="non-scaling-stroke" d="
  M 119.04 645.00
  Q 118.91 646.80 120.75 646.71"
/>
<path stroke="#848688" vector-effect="non-scaling-stroke" d="
  M 120.75 646.71
  Q 132.08 658.87 144.25 670.21"
/>
<path stroke="#1d1e22" stroke-opacity="0.796" vector-effect="non-scaling-stroke" d="
  M 144.25 670.21
  Q 144.06 671.99 146.00 671.71"
/>
<path stroke="#848688" vector-effect="non-scaling-stroke" d="
  M 146.00 671.71
  C 204.05 723.91 278.22 758.67 356.25 767.04"
/>
<path stroke="#848688" vector-effect="non-scaling-stroke" d="
  M 357.54 767.50
  L 379.17 769.22"
/>
<path stroke="#1d1f22" stroke-opacity="0.690" vector-effect="non-scaling-stroke" d="
  M 379.17 769.22
  Q 381.75 770.97 384.75 769.54"
/>
<path stroke="#848688" vector-effect="non-scaling-stroke" d="
  M 384.75 769.54
  L 412.25 769.54"
/>
<path stroke="#1d1f22" stroke-opacity="0.690" vector-effect="non-scaling-stroke" d="
  M 412.25 769.54
  Q 415.03 770.92 417.54 769.25"
/>
<path stroke="#848688" vector-effect="non-scaling-stroke" d="
  M 417.54 769.25
  L 429.46 768.50"
/>
<path stroke="#1e2024" stroke-opacity="0.612" vector-effect="non-scaling-stroke" d="
  M 429.46 768.50
  Q 430.80 769.88 431.75 768.29"
/>
<path stroke="#848688" vector-effect="non-scaling-stroke" d="
  M 431.75 768.29
  Q 531.81 758.22 613.75 700.54"
/>
<path stroke="#1d1f22" stroke-opacity="0.690" vector-effect="non-scaling-stroke" d="
  M 747.96 166.00
  Q 746.13 166.04 747.25 167.29"
/>
<path stroke="#8b8d8f" vector-effect="non-scaling-stroke" d="
  M 747.25 167.29
  C 740.69 185.17 767.46 192.17 771.50 175.48
  C 774.87 161.53 756.71 153.50 747.96 166.00"
/>
<path stroke="#b7b5b6" stroke-opacity="0.690" vector-effect="non-scaling-stroke" d="
  M 747.25 167.29
  L 747.96 166.00"
/>
<path stroke="#bfbebe" stroke-opacity="0.612" vector-effect="non-scaling-stroke" d="
  M 431.75 768.29
  L 429.46 768.50"
/>
<path stroke="#acaaab" stroke-opacity="0.690" vector-effect="non-scaling-stroke" d="
  M 417.54 769.25
  L 412.25 769.54"
/>
<path stroke="#acaaab" stroke-opacity="0.690" vector-effect="non-scaling-stroke" d="
  M 384.75 769.54
  Q 382.09 768.84 379.17 769.22"
/>
<path stroke="#999799" stroke-opacity="0.796" vector-effect="non-scaling-stroke" d="
  M 146.00 671.71
  L 144.25 670.21"
/>
<path stroke="#999799" stroke-opacity="0.796" vector-effect="non-scaling-stroke" d="
  M 120.75 646.71
  L 119.04 645.00"
/>
<path stroke="#acaaab" stroke-opacity="0.690" vector-effect="non-scaling-stroke" d="
  M 27.75 449.04
  Q 28.28 448.29 27.50 447.71"
/>
<path stroke="#bfbebe" stroke-opacity="0.612" vector-effect="non-scaling-stroke" d="
  M 24.75 417.04
  Q 25.44 415.67 24.66 414.20"
/>
<path stroke="#bfbebe" stroke-opacity="0.612" vector-effect="non-scaling-stroke" d="
  M 24.71 379.25
  Q 25.16 377.72 24.71 376.25"
/>
<path stroke="#bfbebe" stroke-opacity="0.612" vector-effect="non-scaling-stroke" d="
  M 25.46 363.75
  Q 26.36 362.79 25.71 361.75"
/>
<path stroke="#acaaab" stroke-opacity="0.690" vector-effect="non-scaling-stroke" d="
  M 26.46 353.75
  L 26.71 352.25"
/>
<path stroke="#999799" stroke-opacity="0.796" vector-effect="non-scaling-stroke" d="
  M 59.25 239.29
  L 59.96 237.75"
/>
<path stroke="#8b8d8f" vector-effect="non-scaling-stroke" d="
  M 216.75 235.71
  L 209.25 238.46"
/>
<path stroke="#1d1f22" stroke-opacity="0.690" vector-effect="non-scaling-stroke" d="
  M 209.25 238.46
  Q 207.74 237.22 207.75 239.04"
/>
<path stroke="#8b8d8f" vector-effect="non-scaling-stroke" d="
  M 207.75 239.04
  Q 202.58 241.66 198.04 245.25"
/>
<path stroke="#1e2024" stroke-opacity="0.612" vector-effect="non-scaling-stroke" d="
  M 198.04 245.25
  Q 196.37 244.61 196.75 246.21"
/>
<path stroke="#8b8d8f" vector-effect="non-scaling-stroke" d="
  M 196.75 246.21
  L 195.71 247.25"
/>
<path stroke="#848688" vector-effect="non-scaling-stroke" d="
  M 195.71 247.25
  Q 185.13 261.94 187.71 280.00"
/>
<path stroke="#1d1f22" stroke-opacity="0.690" vector-effect="non-scaling-stroke" d="
  M 187.71 280.00
  Q 185.63 280.63 187.96 281.25"
/>
<path stroke="#848688" vector-effect="non-scaling-stroke" d="
  M 187.96 281.25
  C 195.11 309.85 227.56 319.07 249.00 298.79"
/>
<path stroke="#8b8d8f" vector-effect="non-scaling-stroke" d="
  M 249.00 298.79
  L 251.00 296.96"
/>
<path stroke="#1d1f22" stroke-opacity="0.690" vector-effect="non-scaling-stroke" d="
  M 251.00 296.96
  Q 253.02 296.79 252.50 295.21"
/>
<path stroke="#8b8d8f" vector-effect="non-scaling-stroke" d="
  M 252.50 295.21
  C 270.35 274.94 261.02 246.20 236.96 236.75"
/>
<path stroke="#1d1e22" stroke-opacity="0.796" vector-effect="non-scaling-stroke" d="
  M 236.96 236.75
  Q 236.71 234.93 235.71 236.25"
/>
<path stroke="#8b8d8f" vector-effect="non-scaling-stroke" d="
  M 235.71 236.25
  Q 226.96 234.13 218.04 235.50"
/>
<path stroke="#1d1f22" stroke-opacity="0.690" vector-effect="non-scaling-stroke" d="
  M 218.04 235.50
  Q 217.37 233.91 216.75 235.71"
/>
<path stroke="#b7b5b6" stroke-opacity="0.690" vector-effect="non-scaling-stroke" d="
  M 218.04 235.50
  L 216.75 235.71"
/>
<path stroke="#a2a1a3" stroke-opacity="0.796" vector-effect="non-scaling-stroke" d="
  M 235.71 236.25
  L 236.96 236.75"
/>
<path stroke="#b7b5b6" stroke-opacity="0.690" vector-effect="non-scaling-stroke" d="
  M 252.50 295.21
  L 251.00 296.96"
/>
<path stroke="#eeeeee" vector-effect="non-scaling-stroke" d="
  M 249.00 298.79
  Q 247.26 299.71 246.65 298.27
  A 1.28 0.98 83.8 0 0 246.03 297.62
  Q 241.25 295.78 236.52 293.88
  C 216.30 285.76 207.05 271.63 200.70 251.48
  A 1.76 1.08 20.7 0 0 200.13 250.74
  L 195.71 247.25"
/>
<path stroke="#cbcaca" stroke-opacity="0.612" vector-effect="non-scaling-stroke" d="
  M 196.75 246.21
  L 198.04 245.25"
/>
<path stroke="#b7b5b6" stroke-opacity="0.690" vector-effect="non-scaling-stroke" d="
  M 207.75 239.04
  L 209.25 238.46"
/>
<path stroke="#acaaab" stroke-opacity="0.690" vector-effect="non-scaling-stroke" d="
  M 187.96 281.25
  L 187.71 280.00"
/>
<path stroke="#848688" vector-effect="non-scaling-stroke" d="
  M 678.96 263.00
  L 673.04 266.25"
/>
<path stroke="#1d1f22" stroke-opacity="0.690" vector-effect="non-scaling-stroke" d="
  M 673.04 266.25
  Q 671.46 265.83 671.10 267.46
  A 0.26 0.23 -79.6 0 0 671.28 267.76
  L 671.50 267.79"
/>
<path stroke="#848688" vector-effect="non-scaling-stroke" d="
  M 671.50 267.79
  C 665.40 274.54 668.99 284.90 672.50 291.96"
/>
<path stroke="#1d1e22" stroke-opacity="0.796" vector-effect="non-scaling-stroke" d="
  M 672.50 291.96
  Q 670.75 292.85 672.96 293.00"
/>
<path stroke="#848688" vector-effect="non-scaling-stroke" d="
  M 672.96 293.00
  Q 678.15 305.31 682.59 311.85
  C 685.53 316.16 693.36 320.27 698.47 316.71
  Q 702.80 313.70 705.60 308.33"
/>
<path stroke="#8b8d8f" vector-effect="non-scaling-stroke" d="
  M 705.60 308.33
  Q 712.80 301.85 719.99 292.76
  C 726.38 284.69 724.76 277.14 717.55 270.45
  Q 711.29 264.64 701.96 258.00"
/>
<path stroke="#1e2024" stroke-opacity="0.612" vector-effect="non-scaling-stroke" d="
  M 701.96 258.00
  Q 701.99 256.08 700.71 257.25"
/>
<path stroke="#8b8d8f" vector-effect="non-scaling-stroke" d="
  M 700.71 257.25
  C 694.74 254.61 683.98 259.38 678.96 263.00"
/>
<path stroke="#cbcaca" stroke-opacity="0.612" vector-effect="non-scaling-stroke" d="
  M 700.71 257.25
  L 701.96 258.00"
/>
<path stroke="#eeeeee" vector-effect="non-scaling-stroke" d="
  M 705.60 308.33
  Q 689.27 287.46 678.96 263.00"
/>
<path stroke="#999799" stroke-opacity="0.796" vector-effect="non-scaling-stroke" d="
  M 672.96 293.00
  L 672.50 291.96"
/>
<path stroke="#acaaab" stroke-opacity="0.690" vector-effect="non-scaling-stroke" d="
  M 671.50 267.79
  L 673.04 266.25"
/>
<path stroke="#1e2024" stroke-opacity="0.612" vector-effect="non-scaling-stroke" d="
  M 375.00 327.04
  Q 373.12 326.82 374.00 328.50"
/>
<path stroke="#1e2024" stroke-opacity="0.612" vector-effect="non-scaling-stroke" d="
  M 374.00 328.50
  Q 372.44 329.19 373.46 330.25"
/>
<path stroke="#8b8d8f" vector-effect="non-scaling-stroke" d="
  M 373.46 330.25
  Q 372.59 334.11 373.50 337.96"
/>
<path stroke="#1d1f22" stroke-opacity="0.690" vector-effect="non-scaling-stroke" d="
  M 373.50 337.96
  Q 371.75 338.85 373.96 339.00"
/>
<path stroke="#8b8d8f" vector-effect="non-scaling-stroke" d="
  M 373.96 339.00
  L 374.46 340.00"
/>
<path stroke="#1d1f22" stroke-opacity="0.690" vector-effect="non-scaling-stroke" d="
  M 374.46 340.00
  Q 372.94 341.21 375.04 341.00"
/>
<path stroke="#8b8d8f" vector-effect="non-scaling-stroke" d="
  M 375.04 341.00
  C 385.00 355.05 405.29 340.65 396.40 327.11
  C 391.37 319.44 380.30 319.22 375.00 327.04"
/>
<path stroke="#b7b5b6" stroke-opacity="0.690" vector-effect="non-scaling-stroke" d="
  M 375.04 341.00
  L 374.46 340.00"
/>
<path stroke="#b7b5b6" stroke-opacity="0.690" vector-effect="non-scaling-stroke" d="
  M 373.96 339.00
  L 373.50 337.96"
/>
<path stroke="#cbcaca" stroke-opacity="0.612" vector-effect="non-scaling-stroke" d="
  M 373.46 330.25
  L 374.00 328.50"
/>
<path stroke="#cbcaca" stroke-opacity="0.612" vector-effect="non-scaling-stroke" d="
  M 374.00 328.50
  L 375.00 327.04"
/>
<path stroke="#8b8d8f" vector-effect="non-scaling-stroke" d="
  M 244.00 495.71
  Q 232.34 497.95 227.71 508.05"
/>
<path stroke="#848688" vector-effect="non-scaling-stroke" d="
  M 227.71 508.05
  Q 226.10 510.39 225.79 512.50"
/>
<path stroke="#1e2024" stroke-opacity="0.612" vector-effect="non-scaling-stroke" d="
  M 225.79 512.50
  Q 224.05 511.53 225.25 513.29"
/>
<path stroke="#848688" vector-effect="non-scaling-stroke" d="
  M 225.25 513.29
  L 223.71 522.25"
/>
<path stroke="#1d1f22" stroke-opacity="0.690" vector-effect="non-scaling-stroke" d="
  M 223.71 522.25
  Q 221.59 522.65 223.71 523.50"
/>
<path stroke="#848688" vector-effect="non-scaling-stroke" d="
  M 223.71 523.50
  C 224.73 538.29 239.97 547.68 253.75 545.54"
/>
<path stroke="#1e2024" stroke-opacity="0.612" vector-effect="non-scaling-stroke" d="
  M 253.75 545.54
  Q 255.28 546.90 254.75 545.21"
/>
<path stroke="#848688" vector-effect="non-scaling-stroke" d="
  M 254.75 545.21
  Q 259.68 544.03 263.50 540.79"
/>
<path stroke="#8b8d8f" vector-effect="non-scaling-stroke" d="
  M 263.50 540.79
  Q 272.24 531.27 274.29 518.50"
/>
<path stroke="#1e2024" stroke-opacity="0.612" vector-effect="non-scaling-stroke" d="
  M 274.29 518.50
  Q 275.90 517.55 274.29 516.50"
/>
<path stroke="#8b8d8f" vector-effect="non-scaling-stroke" d="
  M 274.29 516.50
  Q 273.70 510.51 269.75 506.04"
/>
<path stroke="#1d1f22" stroke-opacity="0.690" vector-effect="non-scaling-stroke" d="
  M 269.75 506.04
  Q 269.89 504.03 267.75 504.04"
/>
<path stroke="#8b8d8f" vector-effect="non-scaling-stroke" d="
  M 267.75 504.04
  Q 258.13 496.23 245.75 495.71"
/>
<path stroke="#1e2024" stroke-opacity="0.612" vector-effect="non-scaling-stroke" d="
  M 245.75 495.71
  Q 244.97 493.73 244.00 495.71"
/>
<path stroke="#cbcaca" stroke-opacity="0.612" vector-effect="non-scaling-stroke" d="
  M 245.75 495.71
  Q 244.82 496.27 244.00 495.71"
/>
<path stroke="#b7b5b6" stroke-opacity="0.690" vector-effect="non-scaling-stroke" d="
  M 267.75 504.04
  L 269.75 506.04"
/>
<path stroke="#cbcaca" stroke-opacity="0.612" vector-effect="non-scaling-stroke" d="
  M 274.29 516.50
  Q 273.69 517.48 274.29 518.50"
/>
<path stroke="#eeeeee" vector-effect="non-scaling-stroke" d="
  M 263.50 540.79
  Q 261.17 541.83 259.73 539.92
  Q 259.42 539.50 259.02 539.28
  C 245.89 532.13 234.66 520.34 227.71 508.05"
/>
<path stroke="#bfbebe" stroke-opacity="0.612" vector-effect="non-scaling-stroke" d="
  M 254.75 545.21
  L 253.75 545.54"
/>
<path stroke="#acaaab" stroke-opacity="0.690" vector-effect="non-scaling-stroke" d="
  M 223.71 523.50
  L 223.71 522.25"
/>
<path stroke="#bfbebe" stroke-opacity="0.612" vector-effect="non-scaling-stroke" d="
  M 225.25 513.29
  L 225.79 512.50"
/>
<path stroke="#1d1f22" stroke-opacity="0.690" vector-effect="non-scaling-stroke" d="
  M 460.04 530.25
  Q 458.47 529.51 458.79 531.25"
/>
<path stroke="#8b8d8f" vector-effect="non-scaling-stroke" d="
  M 458.79 531.25
  Q 458.24 531.82 458.15 532.15"
/>
<path stroke="#848688" vector-effect="non-scaling-stroke" d="
  M 458.15 532.15
  Q 449.48 541.67 447.71 554.00"
/>
<path stroke="#1d1f22" stroke-opacity="0.690" vector-effect="non-scaling-stroke" d="
  M 447.71 554.00
  Q 445.80 553.83 447.46 555.25"
/>
<path stroke="#848688" vector-effect="non-scaling-stroke" d="
  M 447.46 555.25
  L 447.50 561.96"
/>
<path stroke="#1e2024" stroke-opacity="0.612" vector-effect="non-scaling-stroke" d="
  M 447.50 561.96
  Q 445.72 563.09 447.75 563.79"
/>
<path stroke="#848688" vector-effect="non-scaling-stroke" d="
  M 447.75 563.79
  Q 449.52 574.07 456.25 581.96"
/>
<path stroke="#1d1e22" stroke-opacity="0.796" vector-effect="non-scaling-stroke" d="
  M 456.25 581.96
  Q 455.86 583.85 457.79 583.50"
/>
<path stroke="#848688" vector-effect="non-scaling-stroke" d="
  M 457.79 583.50
  C 473.22 599.26 496.00 597.96 512.00 583.79"
/>
<path stroke="#8b8d8f" vector-effect="non-scaling-stroke" d="
  M 512.00 583.79
  C 526.11 569.62 526.77 548.15 513.75 533.04"
/>
<path stroke="#1d1f22" stroke-opacity="0.690" vector-effect="non-scaling-stroke" d="
  M 513.75 533.04
  Q 513.40 530.45 510.75 530.04"
/>
<path stroke="#8b8d8f" vector-effect="non-scaling-stroke" d="
  M 510.75 530.04
  Q 503.85 524.04 495.00 521.71"
/>
<path stroke="#1d1e22" stroke-opacity="0.796" vector-effect="non-scaling-stroke" d="
  M 495.00 521.71
  Q 494.47 519.87 493.75 521.46"
/>
<path stroke="#8b8d8f" vector-effect="non-scaling-stroke" d="
  M 493.75 521.46
  Q 474.95 518.74 460.04 530.25"
/>
<path stroke="#a2a1a3" stroke-opacity="0.796" vector-effect="non-scaling-stroke" d="
  M 493.75 521.46
  L 495.00 521.71"
/>
<path stroke="#b7b5b6" stroke-opacity="0.690" vector-effect="non-scaling-stroke" d="
  M 510.75 530.04
  L 513.75 533.04"
/>
<path stroke="#eeeeee" vector-effect="non-scaling-stroke" d="
  M 512.00 583.79
  Q 510.30 585.09 510.03 583.49
  A 0.84 0.73 -88.5 0 0 509.50 582.85
  C 490.23 576.89 476.16 569.32 466.09 551.18
  Q 462.03 543.86 458.15 532.15"
/>
<path stroke="#b7b5b6" stroke-opacity="0.690" vector-effect="non-scaling-stroke" d="
  M 458.79 531.25
  L 460.04 530.25"
/>
<path stroke="#999799" stroke-opacity="0.796" vector-effect="non-scaling-stroke" d="
  M 457.79 583.50
  L 456.25 581.96"
/>
<path stroke="#bfbebe" stroke-opacity="0.612" vector-effect="non-scaling-stroke" d="
  M 447.75 563.79
  Q 448.40 562.77 447.50 561.96"
/>
<path stroke="#acaaab" stroke-opacity="0.690" vector-effect="non-scaling-stroke" d="
  M 447.46 555.25
  L 447.71 554.00"
/>
</g>
<path fill="#212529" d="
  M 392.81 0.00
  L 415.06 0.00
  Q 445.12 0.90 472.74 6.01
  C 513.53 13.55 485.83 52.59 477.05 71.81
  C 448.78 133.66 456.87 202.66 496.70 257.30
  C 525.45 296.72 566.83 320.47 613.27 331.45
  C 634.72 336.51 637.64 355.27 646.21 371.33
  C 665.37 407.24 697.09 430.05 738.52 432.55
  Q 747.47 433.09 756.44 433.26
  C 782.55 433.74 794.24 439.91 788.83 468.90
  C 775.88 538.23 745.97 602.36 698.60 655.75
  C 692.92 662.14 687.54 665.63 680.20 659.18
  C 677.87 655.06 675.85 652.52 677.04 647.00
  Q 679.10 647.23 677.50 645.96
  C 678.19 644.69 678.83 643.34 679.76 642.22
  Q 694.52 624.30 707.79 605.25
  Q 709.84 605.29 708.79 603.75
  Q 749.74 541.96 765.01 467.99
  Q 766.46 460.95 766.83 457.38
  A 0.45 0.43 2.9 0 0 766.38 456.91
  L 740.75 456.71
  Q 740.47 454.71 739.46 456.50
  L 730.00 455.71
  Q 729.67 453.68 728.75 455.46
  Q 675.64 448.96 642.70 408.82
  C 631.69 395.40 623.39 378.67 616.19 361.98
  C 614.58 358.24 611.50 354.94 607.76 354.23
  Q 598.72 352.50 589.96 349.75
  Q 589.71 347.93 588.71 349.25
  C 506.43 325.61 446.98 255.34 438.50 169.79
  Q 439.83 168.68 438.29 168.00
  L 437.54 148.50
  Q 438.68 146.20 437.50 143.96
  Q 438.25 111.56 448.21 80.75
  C 448.36 81.99 449.99 80.29 448.54 79.75
  Q 456.77 55.33 470.00 33.21
  Q 471.96 33.08 470.75 31.71
  L 471.00 31.21
  Q 473.40 30.45 471.25 29.79
  Q 458.24 27.06 445.00 25.71
  Q 444.46 23.85 443.71 25.50
  L 422.00 23.71
  Q 421.10 22.18 419.96 23.50
  Q 397.35 22.45 374.75 23.71
  Q 373.30 21.37 372.00 23.71
  L 352.04 25.50
  Q 351.29 23.85 350.75 25.71
  L 344.29 26.50
  Q 343.32 24.87 342.75 26.71
  L 312.04 32.50
  Q 311.07 30.90 310.75 32.96
  L 308.25 33.46
  Q 306.99 31.86 306.75 33.96
  L 304.25 34.46
  Q 302.97 33.20 302.75 34.96
  C 247.91 49.22 197.39 76.92 154.04 113.25
  Q 152.37 112.61 152.75 114.21
  L 150.04 116.25
  Q 148.88 115.19 148.75 116.96
  Q 141.34 119.61 135.00 114.96
  Q 135.10 114.20 134.44 113.85
  A 0.76 0.35 26.2 0 1 133.95 113.25
  Q 134.42 111.68 133.21 110.80
  A 1.13 0.66 -80.3 0 1 132.90 109.97
  Q 132.92 100.31 139.82 94.57
  Q 164.53 74.00 196.00 55.22
  Q 273.90 8.75 364.17 0.87
  C 373.12 0.09 383.23 0.35 392.81 0.00
  Z"
/>
<path fill="#f5f5f5" d="
  M 419.96 23.50
  Q 420.89 24.38 422.00 23.71
  L 443.71 25.50
  L 445.00 25.71
  Q 458.24 27.06 471.25 29.79
  L 471.00 31.21
  L 470.75 31.71
  L 470.00 33.21
  Q 456.77 55.33 448.54 79.75
  L 448.21 80.75
  Q 438.25 111.56 437.50 143.96
  Q 436.97 146.22 437.54 148.50
  L 438.29 168.00
  L 438.50 169.79
  C 446.98 255.34 506.43 325.61 588.71 349.25
  L 589.96 349.75
  Q 598.72 352.50 607.76 354.23
  C 611.50 354.94 614.58 358.24 616.19 361.98
  C 623.39 378.67 631.69 395.40 642.70 408.82
  Q 675.64 448.96 728.75 455.46
  L 730.00 455.71
  L 739.46 456.50
  L 740.75 456.71
  L 766.38 456.91
  A 0.45 0.43 2.9 0 1 766.83 457.38
  Q 766.46 460.95 765.01 467.99
  Q 749.74 541.96 708.79 603.75
  L 707.79 605.25
  Q 694.52 624.30 679.76 642.22
  C 678.83 643.34 678.19 644.69 677.50 645.96
  L 677.04 647.00
  C 675.85 652.52 677.87 655.06 680.20 659.18
  Q 672.48 669.97 661.32 677.13
  C 650.99 672.21 641.67 678.27 634.01 684.76
  Q 624.20 693.07 613.75 700.54
  L 612.85 699.79
  A 0.92 0.78 53.2 0 0 612.02 699.60
  Q 590.12 706.95 568.23 714.32
  C 472.53 746.55 371.40 740.42 280.21 697.28
  C 212.05 665.03 151.98 612.08 112.94 546.56
  Q 55.30 449.83 59.89 335.68
  Q 62.23 277.41 79.69 221.80
  Q 83.30 210.28 90.50 190.21
  Q 90.90 189.10 89.96 188.50
  C 98.77 174.95 104.91 163.85 117.44 149.95
  Q 118.16 149.15 119.25 146.29
  L 119.71 145.00
  Q 120.83 138.00 115.86 133.12
  C 116.98 129.96 119.33 128.62 120.97 126.18
  C 123.10 123.01 126.38 121.16 129.56 118.09
  Q 131.50 116.23 135.00 114.96
  Q 141.34 119.61 148.75 116.96
  Q 149.74 117.17 150.04 116.25
  L 152.75 114.21
  L 154.04 113.25
  C 197.39 76.92 247.91 49.22 302.75 34.96
  L 304.25 34.46
  L 306.75 33.96
  L 308.25 33.46
  L 310.75 32.96
  L 312.04 32.50
  L 342.75 26.71
  Q 343.64 27.33 344.29 26.50
  L 350.75 25.71
  Q 351.47 26.26 352.04 25.50
  L 372.00 23.71
  Q 373.35 24.37 374.75 23.71
  Q 397.35 22.45 419.96 23.50
  Z
  M 315.88 143.89
  Q 320.96 150.44 327.49 155.49
  Q 334.00 161.78 342.00 157.04
  Q 343.50 156.21 344.54 154.67
  C 349.67 148.04 347.31 142.83 341.82 137.33
  Q 336.48 131.97 331.00 126.76
  C 320.38 116.65 304.37 133.54 315.88 143.89
  Z
  M 362.50 220.96
  Q 361.71 221.92 362.29 223.00
  C 361.85 228.16 364.67 231.69 369.62 232.69
  C 379.66 234.71 390.83 223.05 394.44 215.14
  C 400.59 201.69 390.57 195.46 378.74 201.20
  Q 366.54 207.12 362.50 220.96
  Z
  M 179.00 313.04
  Q 180.44 315.31 182.71 316.75
  Q 198.08 330.56 218.75 332.71
  L 221.00 332.71
  L 227.00 332.71
  Q 228.20 333.24 229.29 332.50
  Q 238.85 331.57 247.75 327.96
  L 249.04 327.25
  Q 267.29 318.83 277.04 301.25
  L 277.96 299.75
  L 278.21 299.25
  L 278.96 297.75
  Q 283.32 288.06 284.71 277.50
  Q 285.29 275.99 284.71 274.50
  L 284.75 269.04
  Q 285.45 267.41 284.50 265.96
  Q 284.14 260.88 282.71 256.00
  L 282.25 254.71
  L 281.71 253.00
  L 281.21 251.50
  Q 277.11 239.63 268.46 230.59
  Q 267.20 228.53 265.27 227.16
  C 224.21 190.81 160.72 219.84 163.00 275.00
  Q 163.88 296.37 179.00 313.04
  Z
  M 349.50 331.96
  Q 348.66 333.81 349.31 335.78
  Q 351.77 359.72 374.04 368.25
  Q 376.31 369.12 378.71 369.25
  L 380.00 369.71
  Q 401.05 372.06 414.25 356.04
  L 415.00 355.04
  Q 420.27 347.31 421.46 338.00
  L 421.71 335.00
  L 421.71 333.25
  Q 422.46 331.53 421.50 329.96
  Q 418.01 309.40 401.12 301.52
  C 377.57 290.54 351.24 306.22 349.50 331.96
  Z
  M 159.00 414.29
  L 159.96 413.00
  Q 161.24 409.72 160.71 406.25
  Q 161.26 405.53 160.50 404.96
  Q 154.66 393.26 148.50 381.74
  Q 145.53 376.18 142.83 374.24
  C 136.19 369.48 125.32 374.97 125.02 383.49
  Q 124.92 386.09 126.73 389.67
  Q 134.03 404.19 137.58 410.93
  C 139.11 413.86 141.15 417.38 144.39 418.74
  Q 153.00 422.32 159.00 414.29
  Z
  M 508.00 409.54
  Q 500.27 412.83 482.19 421.94
  Q 477.74 424.18 475.75 426.96
  Q 474.58 428.17 473.92 429.89
  Q 472.98 444.79 486.00 444.71
  C 491.09 444.69 499.13 439.43 503.75 437.04
  Q 509.61 434.58 515.02 431.20
  C 525.25 425.98 522.28 412.10 511.75 409.54
  Q 509.83 408.43 508.00 409.54
  Z
  M 309.71 444.50
  L 311.50 444.71
  Q 318.24 443.39 321.25 437.29
  L 321.71 436.00
  C 322.75 431.71 321.99 428.71 318.80 425.43
  Q 312.49 418.91 305.85 412.70
  C 303.42 410.43 299.39 408.77 296.52 409.71
  Q 285.57 413.29 287.44 423.98
  Q 287.81 426.10 289.52 427.97
  C 294.88 433.81 303.55 443.87 309.71 444.50
  Z
  M 241.50 568.46
  L 242.75 568.71
  Q 251.34 569.61 259.75 567.71
  L 261.00 567.46
  L 265.75 565.96
  L 267.00 565.46
  L 273.79 562.00
  L 275.04 561.25
  Q 283.43 555.67 289.00 547.29
  L 290.00 545.79
  C 305.65 519.94 294.53 486.28 266.27 475.27
  C 240.31 465.16 210.97 478.99 202.42 505.50
  C 193.29 533.78 211.62 564.22 241.50 568.46
  Z
  M 601.96 475.00
  Q 600.68 475.47 600.21 476.75
  C 596.88 481.38 597.56 485.19 600.15 490.34
  Q 604.68 499.33 609.19 508.33
  Q 612.48 514.93 614.53 516.72
  C 620.93 522.33 631.22 518.28 633.46 510.00
  Q 634.13 509.09 633.71 508.00
  L 633.71 507.25
  Q 634.26 506.53 633.50 505.96
  Q 632.99 503.78 631.56 500.94
  Q 626.84 491.55 622.00 482.21
  L 621.50 480.96
  C 617.74 472.63 609.91 468.65 601.96 475.00
  Z
  M 444.75 512.21
  L 442.96 513.75
  L 440.96 516.00
  L 439.21 517.75
  Q 426.50 532.67 424.29 552.25
  Q 423.63 553.65 424.29 555.00
  L 424.29 560.50
  Q 423.61 562.13 424.46 563.80
  C 428.43 594.21 450.43 615.61 480.75 618.71
  Q 481.79 619.21 482.75 618.71
  L 487.00 618.71
  Q 488.25 619.30 489.50 618.71
  L 496.50 617.71
  L 498.00 617.46
  L 503.75 615.96
  L 505.25 615.29
  Q 517.02 611.18 526.25 602.79
  L 530.00 599.04
  Q 542.65 585.29 545.46 566.75
  L 545.71 565.50
  Q 546.51 557.88 545.50 550.29
  L 545.50 548.96
  C 538.40 500.73 480.93 480.48 444.75 512.21
  Z
  M 345.96 615.00
  L 345.25 613.96
  Q 339.58 605.79 330.33 609.86
  Q 326.86 611.38 309.32 620.38
  Q 304.28 622.96 302.62 624.73
  C 295.71 632.07 301.26 643.40 310.87 643.85
  Q 313.28 643.97 316.30 642.44
  Q 328.54 636.23 340.77 630.06
  Q 349.94 625.43 345.96 615.00
  Z
  M 435.54 687.00
  Q 434.65 688.06 435.50 689.04
  C 435.67 695.46 438.50 702.67 444.71 705.25
  L 446.00 705.71
  C 457.67 707.78 461.48 691.78 459.71 683.25
  Q 460.26 682.53 459.50 681.96
  C 458.03 675.60 452.22 668.49 445.28 670.88
  C 439.04 673.03 435.64 680.66 435.54 687.00
  Z"
/>
<path fill="#0e090c" fill-opacity="0.224" d="
  M 422.00 23.71
  Q 420.89 24.38 419.96 23.50
  Q 421.10 22.18 422.00 23.71
  Z"
/>
<path fill="#130e11" fill-opacity="0.380" d="
  M 352.04 25.50
  Q 351.47 26.26 350.75 25.71
  Q 351.29 23.85 352.04 25.50
  Z"
/>
<path fill="#130e11" fill-opacity="0.380" d="
  M 445.00 25.71
  L 443.71 25.50
  Q 444.46 23.85 445.00 25.71
  Z"
/>
<path fill="#130e11" fill-opacity="0.380" d="
  M 344.29 26.50
  Q 343.64 27.33 342.75 26.71
  Q 343.32 24.87 344.29 26.50
  Z"
/>
<path fill="#0e090c" fill-opacity="0.224" d="
  M 471.25 29.79
  Q 473.40 30.45 471.00 31.21
  L 471.25 29.79
  Z"
/>
<path fill="#130e11" fill-opacity="0.380" d="
  M 312.04 32.50
  L 310.75 32.96
  Q 311.07 30.90 312.04 32.50
  Z"
/>
<path fill="#0e090c" fill-opacity="0.224" d="
  M 470.75 31.71
  Q 471.96 33.08 470.00 33.21
  L 470.75 31.71
  Z"
/>
<path fill="#0e090c" fill-opacity="0.224" d="
  M 308.25 33.46
  L 306.75 33.96
  Q 306.99 31.86 308.25 33.46
  Z"
/>
<path fill="#130e11" fill-opacity="0.380" d="
  M 304.25 34.46
  L 302.75 34.96
  Q 302.97 33.20 304.25 34.46
  Z"
/>
<path fill="#212529" d="
  M 542.72 136.35
  C 542.27 112.83 550.41 86.00 573.72 74.42
  Q 596.25 63.22 620.88 58.78
  Q 632.99 56.59 640.76 57.42
  C 665.00 59.99 683.60 81.82 683.63 106.07
  Q 683.64 112.07 681.91 121.49
  C 678.51 139.93 673.37 158.79 664.76 175.52
  C 645.58 212.80 607.32 198.42 577.75 186.51
  C 568.96 182.97 561.41 179.72 555.33 172.81
  C 546.83 163.13 542.96 149.11 542.72 136.35
  Z
  M 605.04 87.50
  Q 603.86 86.23 603.75 87.96
  L 587.04 94.50
  Q 585.80 93.21 585.79 95.00
  C 569.42 103.15 565.16 125.08 566.25 141.43
  C 566.96 152.20 575.36 159.53 584.43 163.56
  Q 598.56 169.84 614.49 174.29
  C 625.43 177.34 634.73 175.62 642.96 167.75
  C 643.42 169.08 645.14 167.20 643.50 166.96
  L 643.75 166.54
  Q 652.73 143.23 658.25 121.50
  Q 660.68 111.93 659.54 101.25
  Q 660.77 99.68 659.04 100.00
  C 654.63 73.21 621.41 81.54 605.04 87.50
  Z"
/>
<path fill="#130e11" fill-opacity="0.380" d="
  M 448.54 79.75
  C 449.99 80.29 448.36 81.99 448.21 80.75
  L 448.54 79.75
  Z"
/>
<path fill="#f5f5f5" d="
  M 659.04 100.00
  L 659.54 101.25
  Q 660.68 111.93 658.25 121.50
  Q 652.73 143.23 643.75 166.54
  Q 641.93 167.87 640.40 166.47
  Q 640.00 166.09 639.58 165.97
  C 628.38 162.53 612.93 157.63 604.05 149.82
  Q 580.95 129.50 586.14 97.21
  Q 586.38 95.73 586.25 95.04
  L 587.04 94.50
  L 603.75 87.96
  L 605.04 87.50
  C 621.41 81.54 654.63 73.21 659.04 100.00
  Z"
/>
<path fill="#0e090c" fill-opacity="0.224" d="
  M 605.04 87.50
  L 603.75 87.96
  Q 603.86 86.23 605.04 87.50
  Z"
/>
<path fill="#151117" fill-opacity="0.588" d="
  M 587.04 94.50
  L 586.25 95.04
  L 585.79 95.00
  Q 585.80 93.21 587.04 94.50
  Z"
/>
<path fill="#e6e6e6" d="
  M 585.79 95.00
  L 586.25 95.04
  Q 586.38 95.73 586.14 97.21
  Q 580.95 129.50 604.05 149.82
  C 612.93 157.63 628.38 162.53 639.58 165.97
  Q 640.00 166.09 640.40 166.47
  Q 641.93 167.87 643.75 166.54
  L 643.50 166.96
  L 642.96 167.75
  C 634.73 175.62 625.43 177.34 614.49 174.29
  Q 598.56 169.84 584.43 163.56
  C 575.36 159.53 566.96 152.20 566.25 141.43
  C 565.16 125.08 569.42 103.15 585.79 95.00
  Z"
/>
<path fill="#0e090c" fill-opacity="0.224" d="
  M 659.54 101.25
  L 659.04 100.00
  Q 660.77 99.68 659.54 101.25
  Z"
/>
<path fill="#130e11" fill-opacity="0.380" d="
  M 154.04 113.25
  L 152.75 114.21
  Q 152.37 112.61 154.04 113.25
  Z"
/>
<path fill="#0e090c" fill-opacity="0.224" d="
  M 150.04 116.25
  Q 149.74 117.17 148.75 116.96
  Q 148.88 115.19 150.04 116.25
  Z"
/>
<path fill="#212529" d="
  M 344.54 154.67
  Q 342.14 154.67 342.00 157.04
  Q 334.00 161.78 327.49 155.49
  Q 322.46 148.89 315.88 143.89
  C 304.37 133.54 320.38 116.65 331.00 126.76
  Q 336.48 131.97 341.82 137.33
  C 347.31 142.83 349.67 148.04 344.54 154.67
  Z"
/>
<path fill="#212529" d="
  M 115.86 133.12
  Q 120.83 138.00 119.71 145.00
  Q 117.92 145.26 119.25 146.29
  Q 118.16 149.15 117.44 149.95
  C 104.91 163.85 98.77 174.95 89.96 188.50
  Q 73.05 211.96 59.96 237.75
  Q 58.22 238.13 59.25 239.29
  Q 33.08 292.87 26.71 352.25
  Q 24.97 352.77 26.46 353.75
  L 25.71 361.75
  Q 23.78 362.53 25.46 363.75
  L 24.71 376.25
  Q 22.89 377.75 24.71 379.25
  Q 23.69 396.79 24.66 414.20
  Q 22.91 415.60 24.75 417.04
  L 25.71 429.50
  Q 23.74 430.20 25.71 431.00
  L 27.50 447.71
  Q 25.76 448.63 27.75 449.04
  Q 43.97 561.00 119.04 645.00
  Q 118.91 646.80 120.75 646.71
  Q 132.08 658.87 144.25 670.21
  Q 144.06 671.99 146.00 671.71
  C 204.05 723.91 278.22 758.67 356.25 767.04
  Q 356.03 768.87 357.54 767.50
  L 379.17 769.22
  Q 381.75 770.97 384.75 769.54
  L 412.25 769.54
  Q 415.03 770.92 417.54 769.25
  L 429.46 768.50
  Q 430.80 769.88 431.75 768.29
  Q 531.81 758.22 613.75 700.54
  Q 624.20 693.07 634.01 684.76
  C 641.67 678.27 650.99 672.21 661.32 677.13
  C 669.15 688.90 661.36 693.54 652.12 701.03
  C 586.74 754.04 508.77 786.22 424.48 791.71
  C 358.56 796.00 293.09 786.07 232.95 758.33
  C 99.80 696.92 8.24 563.81 1.09 416.58
  Q 0.67 407.91 0.21 399.25
  C 0.24 302.25 33.49 210.53 96.89 137.47
  Q 101.83 131.78 104.49 130.56
  Q 110.07 128.00 115.86 133.12
  Z"
/>
<path fill="#212529" d="
  M 795.59 172.47
  A 36.50 36.50 0.0 0 1 759.09 208.97
  A 36.50 36.50 0.0 0 1 722.59 172.47
  A 36.50 36.50 0.0 0 1 759.09 135.97
  A 36.50 36.50 0.0 0 1 795.59 172.47
  Z
  M 747.96 166.00
  Q 746.13 166.04 747.25 167.29
  C 740.69 185.17 767.46 192.17 771.50 175.48
  C 774.87 161.53 756.71 153.50 747.96 166.00
  Z"
/>
<path fill="#0e090c" fill-opacity="0.224" d="
  M 315.88 143.89
  Q 322.46 148.89 327.49 155.49
  Q 320.96 150.44 315.88 143.89
  Z"
/>
<path fill="#130e11" fill-opacity="0.380" d="
  M 437.50 143.96
  Q 438.68 146.20 437.54 148.50
  Q 436.97 146.22 437.50 143.96
  Z"
/>
<path fill="#0e090c" fill-opacity="0.224" d="
  M 119.71 145.00
  L 119.25 146.29
  Q 117.92 145.26 119.71 145.00
  Z"
/>
<path fill="#0e090c" fill-opacity="0.224" d="
  M 344.54 154.67
  Q 343.50 156.21 342.00 157.04
  Q 342.14 154.67 344.54 154.67
  Z"
/>
<path fill="#f5f5f5" d="
  M 747.25 167.29
  L 747.96 166.00
  C 756.71 153.50 774.87 161.53 771.50 175.48
  C 767.46 192.17 740.69 185.17 747.25 167.29
  Z"
/>
<path fill="#130e11" fill-opacity="0.380" d="
  M 747.96 166.00
  L 747.25 167.29
  Q 746.13 166.04 747.96 166.00
  Z"
/>
<path fill="#0e090c" fill-opacity="0.224" d="
  M 643.50 166.96
  C 645.14 167.20 643.42 169.08 642.96 167.75
  L 643.50 166.96
  Z"
/>
<path fill="#e6e6e6" d="
  M 89.96 188.50
  Q 90.90 189.10 90.50 190.21
  Q 83.30 210.28 79.69 221.80
  Q 62.23 277.41 59.89 335.68
  Q 55.30 449.83 112.94 546.56
  C 151.98 612.08 212.05 665.03 280.21 697.28
  C 371.40 740.42 472.53 746.55 568.23 714.32
  Q 590.12 706.95 612.02 699.60
  A 0.92 0.78 53.2 0 1 612.85 699.79
  L 613.75 700.54
  Q 531.81 758.22 431.75 768.29
  L 429.46 768.50
  L 417.54 769.25
  L 412.25 769.54
  L 384.75 769.54
  Q 382.09 768.84 379.17 769.22
  L 357.54 767.50
  L 356.25 767.04
  C 278.22 758.67 204.05 723.91 146.00 671.71
  L 144.25 670.21
  Q 132.08 658.87 120.75 646.71
  L 119.04 645.00
  Q 43.97 561.00 27.75 449.04
  Q 28.28 448.29 27.50 447.71
  L 25.71 431.00
  Q 26.33 430.25 25.71 429.50
  L 24.75 417.04
  Q 25.44 415.67 24.66 414.20
  Q 23.69 396.79 24.71 379.25
  Q 25.16 377.72 24.71 376.25
  L 25.46 363.75
  Q 26.36 362.79 25.71 361.75
  L 26.46 353.75
  L 26.71 352.25
  Q 33.08 292.87 59.25 239.29
  L 59.96 237.75
  Q 73.05 211.96 89.96 188.50
  Z"
/>
<path fill="#212529" d="
  M 362.29 223.00
  Q 363.81 222.16 362.50 220.96
  Q 366.54 207.12 378.74 201.20
  C 390.57 195.46 400.59 201.69 394.44 215.14
  C 390.83 223.05 379.66 234.71 369.62 232.69
  C 364.67 231.69 361.85 228.16 362.29 223.00
  Z"
/>
<path fill="#212529" d="
  M 265.27 227.16
  Q 265.95 229.78 268.46 230.59
  Q 277.11 239.63 281.21 251.50
  Q 279.95 252.78 281.71 253.00
  L 282.25 254.71
  Q 280.98 255.89 282.71 256.00
  Q 284.14 260.88 284.50 265.96
  Q 283.07 267.72 284.75 269.04
  L 284.71 274.50
  Q 282.89 276.00 284.71 277.50
  Q 283.32 288.06 278.96 297.75
  Q 277.05 297.98 278.21 299.25
  L 277.96 299.75
  Q 276.24 299.74 277.04 301.25
  Q 267.29 318.83 249.04 327.25
  Q 247.79 326.13 247.75 327.96
  Q 238.85 331.57 229.29 332.50
  Q 227.96 331.03 227.00 332.71
  L 221.00 332.71
  Q 219.81 330.63 218.75 332.71
  Q 198.08 330.56 182.71 316.75
  Q 181.68 314.07 179.00 313.04
  Q 163.88 296.37 163.00 275.00
  C 160.72 219.84 224.21 190.81 265.27 227.16
  Z
  M 216.75 235.71
  L 209.25 238.46
  Q 207.74 237.22 207.75 239.04
  Q 202.58 241.66 198.04 245.25
  Q 196.37 244.61 196.75 246.21
  L 195.71 247.25
  Q 185.13 261.94 187.71 280.00
  Q 185.63 280.63 187.96 281.25
  C 195.11 309.85 227.56 319.07 249.00 298.79
  L 251.00 296.96
  Q 253.02 296.79 252.50 295.21
  C 270.35 274.94 261.02 246.20 236.96 236.75
  Q 236.71 234.93 235.71 236.25
  Q 226.96 234.13 218.04 235.50
  Q 217.37 233.91 216.75 235.71
  Z"
/>
<path fill="#130e11" fill-opacity="0.380" d="
  M 265.27 227.16
  Q 267.20 228.53 268.46 230.59
  Q 265.95 229.78 265.27 227.16
  Z"
/>
<path fill="#212529" d="
  M 738.45 257.05
  C 751.79 270.12 750.79 286.73 741.85 301.82
  C 731.81 318.78 708.31 347.05 685.64 341.44
  C 663.42 335.95 649.02 302.75 644.07 283.19
  C 637.03 255.41 671.38 235.34 693.55 232.57
  C 709.33 230.60 728.00 246.82 738.45 257.05
  Z
  M 678.96 263.00
  L 673.04 266.25
  Q 671.46 265.83 671.10 267.46
  A 0.26 0.23 -79.6 0 0 671.28 267.76
  L 671.50 267.79
  C 665.40 274.54 668.99 284.90 672.50 291.96
  Q 670.75 292.85 672.96 293.00
  Q 678.15 305.31 682.59 311.85
  C 685.53 316.16 693.36 320.27 698.47 316.71
  Q 702.80 313.70 705.60 308.33
  Q 712.80 301.85 719.99 292.76
  C 726.38 284.69 724.76 277.14 717.55 270.45
  Q 711.29 264.64 701.96 258.00
  Q 701.99 256.08 700.71 257.25
  C 694.74 254.61 683.98 259.38 678.96 263.00
  Z"
/>
<path fill="#130e11" fill-opacity="0.380" d="
  M 218.04 235.50
  L 216.75 235.71
  Q 217.37 233.91 218.04 235.50
  Z"
/>
<path fill="#f5f5f5" d="
  M 235.71 236.25
  L 236.96 236.75
  C 261.02 246.20 270.35 274.94 252.50 295.21
  L 251.00 296.96
  L 249.00 298.79
  Q 247.26 299.71 246.65 298.27
  A 1.28 0.98 83.8 0 0 246.03 297.62
  Q 241.25 295.78 236.52 293.88
  C 216.30 285.76 207.05 271.63 200.70 251.48
  A 1.76 1.08 20.7 0 0 200.13 250.74
  L 195.71 247.25
  L 196.75 246.21
  L 198.04 245.25
  Q 202.58 241.66 207.75 239.04
  L 209.25 238.46
  L 216.75 235.71
  L 218.04 235.50
  Q 226.96 234.13 235.71 236.25
  Z"
/>
<path fill="#151117" fill-opacity="0.588" d="
  M 236.96 236.75
  L 235.71 236.25
  Q 236.71 234.93 236.96 236.75
  Z"
/>
<path fill="#151117" fill-opacity="0.588" d="
  M 59.96 237.75
  L 59.25 239.29
  Q 58.22 238.13 59.96 237.75
  Z"
/>
<path fill="#130e11" fill-opacity="0.380" d="
  M 209.25 238.46
  L 207.75 239.04
  Q 207.74 237.22 209.25 238.46
  Z"
/>
<path fill="#0e090c" fill-opacity="0.224" d="
  M 198.04 245.25
  L 196.75 246.21
  Q 196.37 244.61 198.04 245.25
  Z"
/>
<path fill="#e6e6e6" d="
  M 195.71 247.25
  L 200.13 250.74
  A 1.76 1.08 20.7 0 1 200.70 251.48
  C 207.05 271.63 216.30 285.76 236.52 293.88
  Q 241.25 295.78 246.03 297.62
  A 1.28 0.98 83.8 0 1 246.65 298.27
  Q 247.26 299.71 249.00 298.79
  C 227.56 319.07 195.11 309.85 187.96 281.25
  L 187.71 280.00
  Q 185.13 261.94 195.71 247.25
  Z"
/>
<path fill="#130e11" fill-opacity="0.380" d="
  M 281.21 251.50
  L 281.71 253.00
  Q 279.95 252.78 281.21 251.50
  Z"
/>
<path fill="#151117" fill-opacity="0.588" d="
  M 282.25 254.71
  L 282.71 256.00
  Q 280.98 255.89 282.25 254.71
  Z"
/>
<path fill="#f5f5f5" d="
  M 700.71 257.25
  L 701.96 258.00
  Q 711.29 264.64 717.55 270.45
  C 724.76 277.14 726.38 284.69 719.99 292.76
  Q 712.80 301.85 705.60 308.33
  Q 689.27 287.46 678.96 263.00
  C 683.98 259.38 694.74 254.61 700.71 257.25
  Z"
/>
<path fill="#0e090c" fill-opacity="0.224" d="
  M 701.96 258.00
  L 700.71 257.25
  Q 701.99 256.08 701.96 258.00
  Z"
/>
<path fill="#e6e6e6" d="
  M 678.96 263.00
  Q 689.27 287.46 705.60 308.33
  Q 702.80 313.70 698.47 316.71
  C 693.36 320.27 685.53 316.16 682.59 311.85
  Q 678.15 305.31 672.96 293.00
  L 672.50 291.96
  C 668.99 284.90 665.40 274.54 671.50 267.79
  L 673.04 266.25
  L 678.96 263.00
  Z"
/>
<path fill="#130e11" fill-opacity="0.380" d="
  M 673.04 266.25
  L 671.50 267.79
  L 671.28 267.76
  A 0.26 0.23 -79.6 0 1 671.10 267.46
  Q 671.46 265.83 673.04 266.25
  Z"
/>
<path fill="#0e090c" fill-opacity="0.224" d="
  M 284.71 274.50
  Q 285.29 275.99 284.71 277.50
  Q 282.89 276.00 284.71 274.50
  Z"
/>
<path fill="#130e11" fill-opacity="0.380" d="
  M 187.71 280.00
  L 187.96 281.25
  Q 185.63 280.63 187.71 280.00
  Z"
/>
<path fill="#151117" fill-opacity="0.588" d="
  M 672.50 291.96
  L 672.96 293.00
  Q 670.75 292.85 672.50 291.96
  Z"
/>
<path fill="#130e11" fill-opacity="0.380" d="
  M 252.50 295.21
  Q 253.02 296.79 251.00 296.96
  L 252.50 295.21
  Z"
/>
<path fill="#130e11" fill-opacity="0.380" d="
  M 278.96 297.75
  L 278.21 299.25
  Q 277.05 297.98 278.96 297.75
  Z"
/>
<path fill="#212529" d="
  M 421.50 329.96
  Q 419.77 331.73 421.71 333.25
  L 421.71 335.00
  Q 419.54 336.35 421.46 338.00
  Q 420.27 347.31 415.00 355.04
  Q 412.92 354.54 414.25 356.04
  Q 401.05 372.06 380.00 369.71
  Q 379.84 367.85 378.71 369.25
  Q 376.31 369.12 374.04 368.25
  Q 351.77 359.72 349.31 335.78
  Q 351.02 334.11 349.50 331.96
  C 351.24 306.22 377.57 290.54 401.12 301.52
  Q 418.01 309.40 421.50 329.96
  Z
  M 375.00 327.04
  Q 373.12 326.82 374.00 328.50
  Q 372.44 329.19 373.46 330.25
  Q 372.59 334.11 373.50 337.96
  Q 371.75 338.85 373.96 339.00
  L 374.46 340.00
  Q 372.94 341.21 375.04 341.00
  C 385.00 355.05 405.29 340.65 396.40 327.11
  C 391.37 319.44 380.30 319.22 375.00 327.04
  Z"
/>
<path fill="#130e11" fill-opacity="0.380" d="
  M 277.96 299.75
  L 277.04 301.25
  Q 276.24 299.74 277.96 299.75
  Z"
/>
<path fill="#0e090c" fill-opacity="0.224" d="
  M 179.00 313.04
  Q 181.68 314.07 182.71 316.75
  Q 180.44 315.31 179.00 313.04
  Z"
/>
<path fill="#f5f5f5" d="
  M 375.04 341.00
  L 374.46 340.00
  L 373.96 339.00
  L 373.50 337.96
  Q 372.59 334.11 373.46 330.25
  L 374.00 328.50
  L 375.00 327.04
  C 380.30 319.22 391.37 319.44 396.40 327.11
  C 405.29 340.65 385.00 355.05 375.04 341.00
  Z"
/>
<path fill="#130e11" fill-opacity="0.380" d="
  M 249.04 327.25
  L 247.75 327.96
  Q 247.79 326.13 249.04 327.25
  Z"
/>
<path fill="#0e090c" fill-opacity="0.224" d="
  M 375.00 327.04
  L 374.00 328.50
  Q 373.12 326.82 375.00 327.04
  Z"
/>
<path fill="#0e090c" fill-opacity="0.224" d="
  M 374.00 328.50
  L 373.46 330.25
  Q 372.44 329.19 374.00 328.50
  Z"
/>
<path fill="#0e090c" fill-opacity="0.224" d="
  M 421.50 329.96
  Q 422.46 331.53 421.71 333.25
  Q 419.77 331.73 421.50 329.96
  Z"
/>
<path fill="#130e11" fill-opacity="0.380" d="
  M 221.00 332.71
  L 218.75 332.71
  Q 219.81 330.63 221.00 332.71
  Z"
/>
<path fill="#0e090c" fill-opacity="0.224" d="
  M 229.29 332.50
  Q 228.20 333.24 227.00 332.71
  Q 227.96 331.03 229.29 332.50
  Z"
/>
<path fill="#130e11" fill-opacity="0.380" d="
  M 421.71 335.00
  L 421.46 338.00
  Q 419.54 336.35 421.71 335.00
  Z"
/>
<path fill="#130e11" fill-opacity="0.380" d="
  M 373.50 337.96
  L 373.96 339.00
  Q 371.75 338.85 373.50 337.96
  Z"
/>
<path fill="#130e11" fill-opacity="0.380" d="
  M 374.46 340.00
  L 375.04 341.00
  Q 372.94 341.21 374.46 340.00
  Z"
/>
<path fill="#151117" fill-opacity="0.588" d="
  M 589.96 349.75
  L 588.71 349.25
  Q 589.71 347.93 589.96 349.75
  Z"
/>
<path fill="#130e11" fill-opacity="0.380" d="
  M 26.71 352.25
  L 26.46 353.75
  Q 24.97 352.77 26.71 352.25
  Z"
/>
<path fill="#130e11" fill-opacity="0.380" d="
  M 415.00 355.04
  L 414.25 356.04
  Q 412.92 354.54 415.00 355.04
  Z"
/>
<path fill="#0e090c" fill-opacity="0.224" d="
  M 25.71 361.75
  Q 26.36 362.79 25.46 363.75
  Q 23.78 362.53 25.71 361.75
  Z"
/>
<path fill="#151117" fill-opacity="0.588" d="
  M 380.00 369.71
  L 378.71 369.25
  Q 379.84 367.85 380.00 369.71
  Z"
/>
<path fill="#212529" d="
  M 160.50 404.96
  Q 158.88 405.64 160.71 406.25
  Q 161.24 409.72 159.96 413.00
  Q 158.27 412.64 159.00 414.29
  Q 153.00 422.32 144.39 418.74
  C 141.15 417.38 139.11 413.86 137.58 410.93
  Q 134.03 404.19 126.73 389.67
  Q 124.92 386.09 125.02 383.49
  C 125.32 374.97 136.19 369.48 142.83 374.24
  Q 145.53 376.18 148.50 381.74
  Q 154.66 393.26 160.50 404.96
  Z"
/>
<path fill="#0e090c" fill-opacity="0.224" d="
  M 24.71 376.25
  Q 25.16 377.72 24.71 379.25
  Q 22.89 377.75 24.71 376.25
  Z"
/>
<path fill="#130e11" fill-opacity="0.380" d="
  M 160.50 404.96
  Q 161.26 405.53 160.71 406.25
  Q 158.88 405.64 160.50 404.96
  Z"
/>
<path fill="#212529" d="
  M 508.00 409.54
  Q 509.86 410.71 511.75 409.54
  C 522.28 412.10 525.25 425.98 515.02 431.20
  Q 510.54 432.65 507.61 434.58
  Q 507.19 434.85 506.75 434.86
  A 0.98 0.54 5.9 0 0 505.93 435.21
  Q 505.53 436.11 504.49 435.97
  A 0.87 0.68 -66.7 0 0 503.75 436.37
  Q 503.54 436.71 503.75 437.04
  C 499.13 439.43 491.09 444.69 486.00 444.71
  Q 472.98 444.79 473.92 429.89
  Q 475.32 429.85 475.19 428.80
  A 0.73 0.69 -20.8 0 1 475.52 428.11
  Q 476.15 427.72 475.75 426.96
  Q 477.74 424.18 482.19 421.94
  Q 500.27 412.83 508.00 409.54
  Z"
/>
<path fill="#212529" d="
  M 321.71 436.00
  Q 319.90 436.12 321.25 437.29
  Q 318.24 443.39 311.50 444.71
  Q 310.86 443.22 309.71 444.50
  C 303.55 443.87 294.88 433.81 289.52 427.97
  Q 287.81 426.10 287.44 423.98
  Q 285.57 413.29 296.52 409.71
  C 299.39 408.77 303.42 410.43 305.85 412.70
  Q 312.49 418.91 318.80 425.43
  C 321.99 428.71 322.75 431.71 321.71 436.00
  Z"
/>
<path fill="#0e090c" fill-opacity="0.224" d="
  M 159.96 413.00
  L 159.00 414.29
  Q 158.27 412.64 159.96 413.00
  Z"
/>
<path fill="#0e090c" fill-opacity="0.224" d="
  M 24.66 414.20
  Q 25.44 415.67 24.75 417.04
  Q 22.91 415.60 24.66 414.20
  Z"
/>
<path fill="#130e11" fill-opacity="0.380" d="
  M 475.75 426.96
  Q 476.15 427.72 475.52 428.11
  A 0.73 0.69 -20.8 0 0 475.19 428.80
  Q 475.32 429.85 473.92 429.89
  Q 474.58 428.17 475.75 426.96
  Z"
/>
<path fill="#130e11" fill-opacity="0.380" d="
  M 515.02 431.20
  Q 509.61 434.58 503.75 437.04
  Q 503.54 436.71 503.75 436.37
  A 0.87 0.68 -66.7 0 1 504.49 435.97
  Q 505.53 436.11 505.93 435.21
  A 0.98 0.54 5.9 0 1 506.75 434.86
  Q 507.19 434.85 507.61 434.58
  Q 510.54 432.65 515.02 431.20
  Z"
/>
<path fill="#130e11" fill-opacity="0.380" d="
  M 321.71 436.00
  L 321.25 437.29
  Q 319.90 436.12 321.71 436.00
  Z"
/>
<path fill="#130e11" fill-opacity="0.380" d="
  M 311.50 444.71
  L 309.71 444.50
  Q 310.86 443.22 311.50 444.71
  Z"
/>
<path fill="#130e11" fill-opacity="0.380" d="
  M 27.50 447.71
  Q 28.28 448.29 27.75 449.04
  Q 25.76 448.63 27.50 447.71
  Z"
/>
<path fill="#151117" fill-opacity="0.588" d="
  M 730.00 455.71
  L 728.75 455.46
  Q 729.67 453.68 730.00 455.71
  Z"
/>
<path fill="#130e11" fill-opacity="0.380" d="
  M 740.75 456.71
  L 739.46 456.50
  Q 740.47 454.71 740.75 456.71
  Z"
/>
<path fill="#212529" d="
  M 290.00 545.79
  Q 288.29 545.77 289.00 547.29
  Q 283.43 555.67 275.04 561.25
  Q 273.64 559.95 273.79 562.00
  L 267.00 565.46
  Q 265.91 563.80 265.75 565.96
  L 261.00 567.46
  Q 260.17 565.74 259.75 567.71
  Q 251.34 569.61 242.75 568.71
  Q 242.48 566.73 241.50 568.46
  C 211.62 564.22 193.29 533.78 202.42 505.50
  C 210.97 478.99 240.31 465.16 266.27 475.27
  C 294.53 486.28 305.65 519.94 290.00 545.79
  Z
  M 244.00 495.71
  Q 232.34 497.95 227.71 508.05
  Q 226.10 510.39 225.79 512.50
  Q 224.05 511.53 225.25 513.29
  L 223.71 522.25
  Q 221.59 522.65 223.71 523.50
  C 224.73 538.29 239.97 547.68 253.75 545.54
  Q 255.28 546.90 254.75 545.21
  Q 259.68 544.03 263.50 540.79
  Q 272.24 531.27 274.29 518.50
  Q 275.90 517.55 274.29 516.50
  Q 273.70 510.51 269.75 506.04
  Q 269.89 504.03 267.75 504.04
  Q 258.13 496.23 245.75 495.71
  Q 244.97 493.73 244.00 495.71
  Z"
/>
<path fill="#212529" d="
  M 621.50 480.96
  Q 620.21 482.20 622.00 482.21
  Q 626.84 491.55 631.56 500.94
  Q 632.99 503.78 633.50 505.96
  Q 631.94 506.70 633.71 507.25
  L 633.71 508.00
  Q 631.88 508.94 633.46 510.00
  C 631.22 518.28 620.93 522.33 614.53 516.72
  Q 612.48 514.93 609.19 508.33
  Q 604.68 499.33 600.15 490.34
  C 597.56 485.19 596.88 481.38 600.21 476.75
  Q 601.87 476.78 601.96 475.00
  C 609.91 468.65 617.74 472.63 621.50 480.96
  Z"
/>
<path fill="#130e11" fill-opacity="0.380" d="
  M 621.50 480.96
  L 622.00 482.21
  Q 620.21 482.20 621.50 480.96
  Z"
/>
<path fill="#0e090c" fill-opacity="0.224" d="
  M 245.75 495.71
  Q 244.82 496.27 244.00 495.71
  Q 244.97 493.73 245.75 495.71
  Z"
/>
<path fill="#f5f5f5" d="
  M 267.75 504.04
  L 269.75 506.04
  Q 273.70 510.51 274.29 516.50
  Q 273.69 517.48 274.29 518.50
  Q 272.24 531.27 263.50 540.79
  Q 261.17 541.83 259.73 539.92
  Q 259.42 539.50 259.02 539.28
  C 245.89 532.13 234.66 520.34 227.71 508.05
  Q 232.34 497.95 244.00 495.71
  Q 244.82 496.27 245.75 495.71
  Q 258.13 496.23 267.75 504.04
  Z"
/>
<path fill="#212529" d="
  M 545.50 548.96
  Q 543.85 549.58 545.50 550.29
  Q 546.51 557.88 545.71 565.50
  C 544.97 563.99 543.92 566.78 545.46 566.75
  Q 542.65 585.29 530.00 599.04
  Q 527.05 599.90 526.25 602.79
  Q 517.02 611.18 505.25 615.29
  Q 503.92 614.22 503.75 615.96
  L 498.00 617.46
  Q 496.94 615.77 496.50 617.71
  L 489.50 618.71
  Q 488.14 616.88 487.00 618.71
  L 482.75 618.71
  Q 481.94 616.68 480.75 618.71
  C 450.43 615.61 428.43 594.21 424.46 563.80
  Q 426.01 562.03 424.29 560.50
  L 424.29 555.00
  Q 426.07 553.60 424.29 552.25
  Q 426.50 532.67 439.21 517.75
  Q 440.93 517.81 440.96 516.00
  L 442.96 513.75
  Q 444.77 514.03 444.75 512.21
  C 480.93 480.48 538.40 500.73 545.50 548.96
  Z
  M 460.04 530.25
  Q 458.47 529.51 458.79 531.25
  Q 458.24 531.82 458.15 532.15
  Q 449.48 541.67 447.71 554.00
  Q 445.80 553.83 447.46 555.25
  L 447.50 561.96
  Q 445.72 563.09 447.75 563.79
  Q 449.52 574.07 456.25 581.96
  Q 455.86 583.85 457.79 583.50
  C 473.22 599.26 496.00 597.96 512.00 583.79
  C 526.11 569.62 526.77 548.15 513.75 533.04
  Q 513.40 530.45 510.75 530.04
  Q 503.85 524.04 495.00 521.71
  Q 494.47 519.87 493.75 521.46
  Q 474.95 518.74 460.04 530.25
  Z"
/>
<path fill="#130e11" fill-opacity="0.380" d="
  M 267.75 504.04
  Q 269.89 504.03 269.75 506.04
  L 267.75 504.04
  Z"
/>
<path fill="#0e090c" fill-opacity="0.224" d="
  M 633.50 505.96
  Q 634.26 506.53 633.71 507.25
  Q 631.94 506.70 633.50 505.96
  Z"
/>
<path fill="#0e090c" fill-opacity="0.224" d="
  M 633.71 508.00
  Q 634.13 509.09 633.46 510.00
  Q 631.88 508.94 633.71 508.00
  Z"
/>
<path fill="#e6e6e6" d="
  M 227.71 508.05
  C 234.66 520.34 245.89 532.13 259.02 539.28
  Q 259.42 539.50 259.73 539.92
  Q 261.17 541.83 263.50 540.79
  Q 259.68 544.03 254.75 545.21
  L 253.75 545.54
  C 239.97 547.68 224.73 538.29 223.71 523.50
  L 223.71 522.25
  L 225.25 513.29
  L 225.79 512.50
  Q 226.10 510.39 227.71 508.05
  Z"
/>
<path fill="#0e090c" fill-opacity="0.224" d="
  M 225.79 512.50
  L 225.25 513.29
  Q 224.05 511.53 225.79 512.50
  Z"
/>
<path fill="#0e090c" fill-opacity="0.224" d="
  M 444.75 512.21
  Q 444.77 514.03 442.96 513.75
  L 444.75 512.21
  Z"
/>
<path fill="#130e11" fill-opacity="0.380" d="
  M 440.96 516.00
  Q 440.93 517.81 439.21 517.75
  L 440.96 516.00
  Z"
/>
<path fill="#0e090c" fill-opacity="0.224" d="
  M 274.29 516.50
  Q 275.90 517.55 274.29 518.50
  Q 273.69 517.48 274.29 516.50
  Z"
/>
<path fill="#f5f5f5" d="
  M 493.75 521.46
  L 495.00 521.71
  Q 503.85 524.04 510.75 530.04
  L 513.75 533.04
  C 526.77 548.15 526.11 569.62 512.00 583.79
  Q 510.30 585.09 510.03 583.49
  A 0.84 0.73 -88.5 0 0 509.50 582.85
  C 490.23 576.89 476.16 569.32 466.09 551.18
  Q 462.03 543.86 458.15 532.15
  Q 458.24 531.82 458.79 531.25
  L 460.04 530.25
  Q 474.95 518.74 493.75 521.46
  Z"
/>
<path fill="#151117" fill-opacity="0.588" d="
  M 495.00 521.71
  L 493.75 521.46
  Q 494.47 519.87 495.00 521.71
  Z"
/>
<path fill="#130e11" fill-opacity="0.380" d="
  M 223.71 522.25
  L 223.71 523.50
  Q 221.59 522.65 223.71 522.25
  Z"
/>
<path fill="#130e11" fill-opacity="0.380" d="
  M 460.04 530.25
  L 458.79 531.25
  Q 458.47 529.51 460.04 530.25
  Z"
/>
<path fill="#130e11" fill-opacity="0.380" d="
  M 510.75 530.04
  Q 513.40 530.45 513.75 533.04
  L 510.75 530.04
  Z"
/>
<path fill="#e6e6e6" d="
  M 458.15 532.15
  Q 462.03 543.86 466.09 551.18
  C 476.16 569.32 490.23 576.89 509.50 582.85
  A 0.84 0.73 -88.5 0 1 510.03 583.49
  Q 510.30 585.09 512.00 583.79
  C 496.00 597.96 473.22 599.26 457.79 583.50
  L 456.25 581.96
  Q 449.52 574.07 447.75 563.79
  Q 448.40 562.77 447.50 561.96
  L 447.46 555.25
  L 447.71 554.00
  Q 449.48 541.67 458.15 532.15
  Z"
/>
<path fill="#0e090c" fill-opacity="0.224" d="
  M 254.75 545.21
  Q 255.28 546.90 253.75 545.54
  L 254.75 545.21
  Z"
/>
<path fill="#130e11" fill-opacity="0.380" d="
  M 290.00 545.79
  L 289.00 547.29
  Q 288.29 545.77 290.00 545.79
  Z"
/>
<path fill="#130e11" fill-opacity="0.380" d="
  M 545.50 548.96
  L 545.50 550.29
  Q 543.85 549.58 545.50 548.96
  Z"
/>
<path fill="#130e11" fill-opacity="0.380" d="
  M 447.71 554.00
  L 447.46 555.25
  Q 445.80 553.83 447.71 554.00
  Z"
/>
<path fill="#130e11" fill-opacity="0.380" d="
  M 275.04 561.25
  L 273.79 562.00
  Q 273.64 559.95 275.04 561.25
  Z"
/>
<path fill="#0e090c" fill-opacity="0.224" d="
  M 447.50 561.96
  Q 448.40 562.77 447.75 563.79
  Q 445.72 563.09 447.50 561.96
  Z"
/>
<path fill="#130e11" fill-opacity="0.380" d="
  M 267.00 565.46
  L 265.75 565.96
  Q 265.91 563.80 267.00 565.46
  Z"
/>
<path fill="#0e090c" fill-opacity="0.224" d="
  M 545.71 565.50
  L 545.46 566.75
  C 543.92 566.78 544.97 563.99 545.71 565.50
  Z"
/>
<path fill="#151117" fill-opacity="0.588" d="
  M 261.00 567.46
  L 259.75 567.71
  Q 260.17 565.74 261.00 567.46
  Z"
/>
<path fill="#130e11" fill-opacity="0.380" d="
  M 242.75 568.71
  L 241.50 568.46
  Q 242.48 566.73 242.75 568.71
  Z"
/>
<path fill="#151117" fill-opacity="0.588" d="
  M 456.25 581.96
  L 457.79 583.50
  Q 455.86 583.85 456.25 581.96
  Z"
/>
<path fill="#130e11" fill-opacity="0.380" d="
  M 530.00 599.04
  L 526.25 602.79
  Q 527.05 599.90 530.00 599.04
  Z"
/>
<path fill="#130e11" fill-opacity="0.380" d="
  M 708.79 603.75
  Q 709.84 605.29 707.79 605.25
  L 708.79 603.75
  Z"
/>
<path fill="#212529" d="
  M 345.25 613.96
  Q 344.26 615.41 345.96 615.00
  Q 349.94 625.43 340.77 630.06
  Q 328.54 636.23 316.30 642.44
  Q 313.28 643.97 310.87 643.85
  C 301.26 643.40 295.71 632.07 302.62 624.73
  Q 304.28 622.96 309.32 620.38
  Q 326.86 611.38 330.33 609.86
  Q 339.58 605.79 345.25 613.96
  Z"
/>
<path fill="#130e11" fill-opacity="0.380" d="
  M 345.25 613.96
  L 345.96 615.00
  Q 344.26 615.41 345.25 613.96
  Z"
/>
<path fill="#130e11" fill-opacity="0.380" d="
  M 505.25 615.29
  L 503.75 615.96
  Q 503.92 614.22 505.25 615.29
  Z"
/>
<path fill="#130e11" fill-opacity="0.380" d="
  M 498.00 617.46
  L 496.50 617.71
  Q 496.94 615.77 498.00 617.46
  Z"
/>
<path fill="#0e090c" fill-opacity="0.224" d="
  M 482.75 618.71
  Q 481.79 619.21 480.75 618.71
  Q 481.94 616.68 482.75 618.71
  Z"
/>
<path fill="#0e090c" fill-opacity="0.224" d="
  M 489.50 618.71
  Q 488.25 619.30 487.00 618.71
  Q 488.14 616.88 489.50 618.71
  Z"
/>
<path fill="#151117" fill-opacity="0.588" d="
  M 119.04 645.00
  L 120.75 646.71
  Q 118.91 646.80 119.04 645.00
  Z"
/>
<path fill="#130e11" fill-opacity="0.380" d="
  M 677.50 645.96
  Q 679.10 647.23 677.04 647.00
  L 677.50 645.96
  Z"
/>
<path fill="#151117" fill-opacity="0.588" d="
  M 144.25 670.21
  L 146.00 671.71
  Q 144.06 671.99 144.25 670.21
  Z"
/>
<path fill="#212529" d="
  M 459.50 681.96
  Q 457.88 682.64 459.71 683.25
  C 461.48 691.78 457.67 707.78 446.00 705.71
  Q 445.84 703.85 444.71 705.25
  C 438.50 702.67 435.67 695.46 435.50 689.04
  Q 436.69 688.07 435.54 687.00
  C 435.64 680.66 439.04 673.03 445.28 670.88
  C 452.22 668.49 458.03 675.60 459.50 681.96
  Z"
/>
<path fill="#130e11" fill-opacity="0.380" d="
  M 459.50 681.96
  Q 460.26 682.53 459.71 683.25
  Q 457.88 682.64 459.50 681.96
  Z"
/>
<path fill="#151117" fill-opacity="0.588" d="
  M 446.00 705.71
  L 444.71 705.25
  Q 445.84 703.85 446.00 705.71
  Z"
/>
<path fill="#0e090c" fill-opacity="0.224" d="
  M 431.75 768.29
  Q 430.80 769.88 429.46 768.50
  L 431.75 768.29
  Z"
/>
<path fill="#130e11" fill-opacity="0.380" d="
  M 379.17 769.22
  Q 382.09 768.84 384.75 769.54
  Q 381.75 770.97 379.17 769.22
  Z"
/>
<path fill="#130e11" fill-opacity="0.380" d="
  M 417.54 769.25
  Q 415.03 770.92 412.25 769.54
  L 417.54 769.25
  Z"
/>
</svg>
